<?xml version="1.0" standalone="yes"?>
<svg width="105" height="63">
<path style="fill:#ffffff; stroke:none;" d="M0 0L0 63L105 63L105 0L0 0z"/>
<path style="fill:#bbbbbb; stroke:none;" d="M5 3C2.15834 11.9643 2.83163 21.8923 5 31L7 31C9.82722 22.6483 9.95956 11.3091 7 3L5 3z"/>
<path style="fill:#b4b4b4; stroke:none;" d="M12 3C9.84781 10.2811 9.84781 21.7189 12 29L14 29C16.3537 21.0373 16.3743 10.9581 14 3L12 3z"/>
<path style="fill:#c2c2c2; stroke:none;" d="M20.5054 4.17593C16.133 6.73721 17.3563 26.6366 22.4159 23.6728C26.0073 21.569 24.3312 1.93484 20.5054 4.17593z"/>
<path style="fill:#d4d4d4; stroke:none;" d="M38 10L27 11C28.8044 22.1502 47.5749 17.5431 49.5617 8.91049C51.4732 0.605217 36.7479 1.54944 38 10z"/>
<path style="fill:#b4b4b4; stroke:none;" d="M63 3L64 6C62.1851 5.23112 59.2838 3.03999 57.2292 3.74691C53.8166 4.92107 55.4719 9.87451 58.2284 10.6782C64.7066 12.5672 71.3787 6.08219 63 3z"/>
<path style="fill:#d9d9d9; stroke:none;" d="M75.0579 3.96682C68.7592 6.00512 71.4745 15.1098 77.9452 13.3032C84.4913 11.4757 81.2176 1.9735 75.0579 3.96682z"/>
<path style="fill:#c4c4c4; stroke:none;" d="M84 10L100 13C97.4362 6.53328 87.0909 0.596111 84 10z"/>
<path style="fill:#fafafa; stroke:none;" d="M40 6L39 12L33 11L34 14L45 13L44 10L46 7L45 7L44 9L40 6z"/>
<path style="fill:#e2e2e2; stroke:none;" d="M58 7C60.2069 10.3652 63.5984 10.1516 66 7L58 7z"/>
<path style="fill:#fafafa; stroke:none;" d="M5 13L5 20L6 20L5 13z"/>
<path style="fill:#adadad; stroke:none;" d="M56.3372 15.0231C50.5529 18.9657 63.1668 21.453 66.3773 18.8256C71.357 14.7504 59.1225 13.1247 56.3372 15.0231z"/>
<path style="fill:#c4c4c4; stroke:none;" d="M84 22L88 21C90.2744 24.4948 93.2185 23.6892 97 23C96.6713 12.8776 84.7765 12.0052 84 22z"/>
<path style="fill:#c9c9c9; stroke:none;" d="M53 26C52.5926 24.3065 52.2698 22.5865 51.4267 21.034C44.4783 8.239 33.8779 35.5644 47.9753 28.9923C49.7246 28.1768 51.3655 27.015 53 26z"/>
<path style="fill:#acacac; stroke:none;" d="M81 19C65.4887 11.5465 76.0417 31.9607 81 19z"/>
<path style="fill:#838383; stroke:none;" d="M39 29L39 25L38 25C32.8577 30.2261 29.1951 25.9915 29 20L36 20L35 23C41.6675 21.5639 32.5359 16.5108 28.1111 18.5C24.5071 20.1202 26.1713 27.6503 29.1111 29.25C31.4918 30.5455 36.275 29.0115 39 29z"/>
<path style="fill:#f2f2f2; stroke:none;" d="M44 20L42 29C46.0868 27.5641 46.2352 23.9251 47 20L44 20z"/>
<path style="fill:#c5c5c5; stroke:none;" d="M58.0594 22.7431C49.5738 26.2557 60.4777 31.7729 65.767 29.2577C72.6736 25.9734 62.5217 20.8959 58.0594 22.7431z"/>
<path style="fill:#fefefe; stroke:none;" d="M55 25L60 28L60 27L55 25z"/>
<path style="fill:#b0b0b0; stroke:none;" d="M93 26L87.9946 25.6343C78.5115 25.1795 90.9915 38.5944 93 26z"/>
<path style="fill:#cccccc; stroke:none;" d="M75.108 26.8472C69.7741 28.558 71.2725 37.3214 76.9961 36.1682C83.7419 34.8091 82.084 24.6098 75.108 26.8472z"/>
<path style="fill:#d5d5d5; stroke:none;" d="M16 32L17 32L21 28L22 33L18 33L17 35C31.1778 38.4294 19.0546 18.0019 16 32z"/>
<path style="fill:#c1c1c1; stroke:none;" d="M7 42C4.35526 44.6957 4.35526 46.3043 7 49C7.5034 43.8876 11.3646 42.6773 13 48L14 48L12 39C15.8913 28.9117 -1.67266 31.2111 7 42z"/>
<path style="fill:#cccccc; stroke:none;" d="M35.0586 31.7431C26.6131 35.2186 35.1017 45.2543 41.8912 41.7816C50.2443 37.5092 42.0609 28.8614 35.0586 31.7431z"/>
<path style="fill:#d5d5d5; stroke:none;" d="M57 31L57 32L60 32L60 33L56 34L58 38L62 36L63 36L64 36L69 40C68.7449 32.1659 64.0372 31.059 57 31z"/>
<path style="fill:#919191; stroke:none;" d="M91 37L102 36L102 34C97.0219 31.5208 92.112 30.1888 91 37z"/>
<path style="fill:#b0b0b0; stroke:none;" d="M67 40L64 36L63 36L62 36L58 38L56 34L60 33C56.9033 31.9359 50.9594 34.4985 54.6227 38.2616C57.353 41.0662 63.4622 40 67 40z"/>
<path style="fill:#f8f8f8; stroke:none;" d="M34 33L33 39L35 41C39.5781 40.1314 42.9057 40.0152 44 35L43 35L35 37L36 33L34 33z"/>
<path style="fill:#b0b0b0; stroke:none;" d="M20.0147 35.8272C13.0284 35.9263 14.6582 45.646 20.9853 45.338C27.5302 45.0194 26.4061 35.7365 20.0147 35.8272z"/>
<path style="fill:#cdcdcd; stroke:none;" d="M89.1489 39.0278C81.6942 43.459 92.0567 50.6051 97.6813 46.821C104.093 42.5075 94.3289 35.9487 89.1489 39.0278z"/>
<path style="fill:#a2a2a2; stroke:none;" d="M70 44L79 45L78 43L84 43C82.019 36.2276 72.3835 38.823 70 44z"/>
<path style="fill:#bcbcbc; stroke:none;" d="M39 52C38.7161 50.1281 38.5017 48.6733 37.4861 47.0154C30.7276 35.983 21.189 49.7403 32.9961 51.6952C34.9796 52.0236 36.9977 51.9834 39 52z"/>
<path style="fill:#b2b2b2; stroke:none;" d="M40 49L41 49L51 42C45.527 39.7897 40.8024 43.5211 40 49z"/>
<path style="fill:#cccccc; stroke:none;" d="M60.0193 41.7037C51.8609 42.9087 55.8821 51.6237 62.9954 50.6798C72.0199 49.4822 67.4798 40.6018 60.0193 41.7037z"/>
<path style="fill:#d5d5d5; stroke:none;" d="M84 41L78 43L79 45L70 44C73.6274 50.4644 87.1775 49.3716 84 41z"/>
<path style="fill:#878787; stroke:none;" d="M41 48C42.7994 52.0539 51.9382 52.9552 53 48L41 48z"/>
<path style="fill:#a5a5a5; stroke:none;" d="M20 49L18 60L23 58L29 59L30 53L20 49z"/>
<path style="fill:#b2b2b2; stroke:none;" d="M6 59C7.61569 58.9943 9.36503 59.1338 10.966 58.8519C22.2924 56.8569 6.51091 43.5135 5.43441 55.0139C5.31846 56.2526 5.79229 57.8094 6 59z"/>
<path style="fill:#cbcbcb; stroke:none;" d="M89 50C88.2726 59.3025 91.0103 61.2108 100 58C99.7626 50.8563 95.4107 50.0573 89 50z"/>
<path style="fill:#ababab; stroke:none;" d="M77.0039 51.4483C69.0632 52.7165 72.0435 59.5194 78.9992 58.4005C87.0107 57.1117 84.0221 50.3274 77.0039 51.4483z"/>
<path style="fill:#c5c5c5; stroke:none;" d="M54 54C55.3629 62.0313 64.203 60.171 70 58C66.3221 50.3692 60.844 52.9938 54 54z"/>
<path style="fill:#b5b5b5; stroke:none;" d="M34 60L44 60L44 59L37 59C40.0121 53.5603 43.7346 56.193 47 60C47.5504 50.5952 35.3037 51.4869 34 60z"/>
<path style="fill:#f5f5f5; stroke:none;" d="M77 55L77 56L84 56L77 55z"/>
</svg>
