<?xml version="1.0" standalone="yes"?>
<svg width="419" height="250">
<path style="fill:#ffffff; stroke:none;" d="M0 0L0 250L419 250L419 0L0 0z"/>
<path style="fill:#a5a5a5; stroke:none;" d="M242 10L242 11L248 11L242 10z"/>
<path style="fill:#575757; stroke:none;" d="M234 13L234 14L254 14C248.582 8.46747 240.635 11.8766 234 13z"/>
<path style="fill:#b2b2b2; stroke:none;" d="M172 12L172 13L185 13L172 12z"/>
<path style="fill:#5b5b5b; stroke:none;" d="M268 22L267 22C269.332 44.0562 236.14 46.9208 224.114 33.4051C217.665 26.1572 224.842 14.6472 233 13C222.627 9.00336 217.194 26.81 221.728 33.9105C232.236 50.3671 273.608 45.5564 268 22z"/>
<path style="fill:#aeaeae; stroke:none;" d="M229 13L229 14L235 13L229 13z"/>
<path style="fill:#ffffff; stroke:none;" d="M238 14L238 16C241.041 18.7771 242.299 24.1025 246.105 25.9182C250.442 27.9873 256.252 23.6884 255.663 19.0108C254.596 10.5373 243.56 11.654 238 14z"/>
<path style="fill:#6e6e6e; stroke:none;" d="M17 56L18 56L18 28C22.4449 27.3363 21 18.6374 21 15C24.981 16.164 26.132 17.8683 26 22L28 22C24.5769 30.8032 20.6442 36.105 23 46L24 46C23.3506 37.7011 24.7289 33.5372 28 26L29 26L28 46C31.9765 46 29.5938 53.2041 29.1667 56C27.5877 66.3351 25.2765 75.4915 25 86L32 62L32 68C35.0238 63.1391 31.7146 57.2843 31.1744 52C30.2024 42.493 34.1969 34.3849 30.9352 25C29.7352 21.5474 27.9074 12.1825 22.2994 13.7516C19.2886 14.5939 18.4652 20.478 17.7207 23C14.6399 33.4355 17 45.1865 17 56z"/>
<path style="fill:#4d4d4d; stroke:none;" d="M45 101L46 101C46 79.9461 46.4997 59.0201 47.0147 38C47.2076 30.1262 46.3449 19.0702 53 14C57.4232 23.3832 58 29.4933 58 40L59 40L59 35L60 35L60 39C62.263 33.607 60.7971 23.1423 57.9869 18.0193C56.1728 14.7122 51.7111 11.7264 48.6034 15.3225C45.0971 19.3799 46.3323 29.8344 45.7145 35C43.1355 56.564 45 79.2776 45 101z"/>
<path style="fill:#858585; stroke:none;" d="M160 24C159.81 18.6825 170.419 14.4453 175 14C192.211 12.3268 201.835 23.9963 193.167 40C190.852 44.2725 186.407 48.5014 183 52C184.206 43.7953 185.897 38.4364 191 32L188 33C186.821 25.3615 172.825 15.6272 169 26C174.416 23.2685 183.73 22.9128 185.424 31.0039C186.91 38.1021 180.648 45.9665 183 54C186.951 51.0922 190.699 47.1035 193.441 43C206.419 23.5742 190.886 7.63637 170 13.6381C166.525 14.6366 154.588 19.9279 160 24z"/>
<path style="fill:#787878; stroke:none;" d="M51 14L50 20L51 20L53 14L51 14z"/>
<path style="fill:#8a8a8a; stroke:none;" d="M85 14L85 15L90 15L85 14z"/>
<path style="fill:#ffffff; stroke:none;" d="M161 20L161 21C171.243 21 184.619 20.9635 188 33L191 32C185.023 37.3964 183.69 44.0865 183 52C190.81 46.0272 201.849 30.2908 195.106 20.0432C187.776 8.90526 169.794 14.2052 161 20z"/>
<path style="fill:#e0e0e0; stroke:none;" d="M221 26L225 24L224 21C227.936 24.5555 230.515 27.7314 236 26C235.888 22.8683 239.422 20.6309 237.5 17C231.6 5.8553 222.473 20.4039 221 26z"/>
<path style="fill:#868686; stroke:none;" d="M237 14L235 24L235 25C241.808 25.3727 245.075 28.1765 245 35L246 35C250.989 27.5531 264.843 21.9315 263 36C268.642 32.7763 263.689 27.616 262 23L257 24L257 17L256 17C254.579 35.7811 242.172 18.299 237 14z"/>
<path style="fill:#6e6e6e; stroke:none;" d="M254 14L255 17L259 15L254 14z"/>
<path style="fill:#ffffff; stroke:none;" d="M21 15C21 19.6279 21.8415 28.9604 18 28L20 65L18 65L18 61L17 61L18 80L19 80L19 74L20 74L22 120C29.3607 117.911 29.9814 111.74 30 105L29 105L25 114L24 114C25.6555 105.077 20.9906 96.5346 27 89L26 106L27 106L27 99C32.171 98.2973 32.3768 81.5661 29 81L28 74L31 69C23.8138 71.3851 29.1549 80.9636 25 86C26.215 75.7662 27.9316 66.1785 29.412 56C29.8286 53.1363 31.4967 46.5828 28 46L29 26L28 26C22.4974 34.7386 23.6937 40.2995 25 50L26 50L27 46L28 46L27 56C15.8849 46.1913 25.2301 32.6427 28 22L26 22C26.7328 17.5491 25.4742 15.714 21 15z"/>
<path style="fill:#525252; stroke:none;" d="M76 64L77 64C77 53.4267 71.7979 38.1526 79 29C77.8894 20.7324 88.2581 9.83948 92.9907 21.0193C98.1881 33.297 95 54.713 95 68L91 65L93 91C96.6436 85.0346 96 77.7397 96 71C96 58.8068 96.9854 46.139 95.8302 34C95.3949 29.4254 96.2741 20.9751 93.2577 17.3179C89.952 13.3099 81.9301 14.5782 78.9946 18.3441C74.8292 23.6878 74.1764 35.3997 74.0147 42C73.8306 49.5134 75.9383 56.5461 76 64z"/>
<path style="fill:#373737; stroke:none;" d="M258 15L258 16L266 22L267 22C265.383 17.4909 262.627 15.8405 258 15z"/>
<path style="fill:#b8b8b8; stroke:none;" d="M300 15L300 16L306 16L300 15z"/>
<path style="fill:#ffffff; stroke:none;" d="M49 16C42.5849 37.703 46.4617 67.4305 47.0147 90C47.2159 98.2134 44.079 111.642 55 112L51 91L54 94L55 94L58 71L53 78L52 78L58 64L50 71C48.9949 58.2645 54.8577 54.3107 58 43L57 43L54 46C56.9609 40.6974 59.7946 34.5557 56 29L52 48L50 48L49 21L50 21C50.338 25.375 51.6687 27.0968 56 28L58 22L52 26L55 16L51 20L50 20L49 16M81 18L81 19L88 17C82.5377 20.951 77.261 20.8765 79 29C70.7654 35.9278 77 56.6655 77 66C80.1462 66.5244 92.8044 81.9511 89 81L92 88L93 88C94.3088 80.9503 94.8424 73.708 92 67C84.455 65.2778 80.4886 58.0947 79 51L93 64C94.671 60.0179 93.9529 55.2804 94.0039 51C94.1274 40.6108 99.6317 10.1401 81 18z"/>
<path style="fill:#eeeeee; stroke:none;" d="M256 16L257 24L262 23L266 32C270.706 24.0914 263.985 16.8237 256 16z"/>
<path style="fill:#646464; stroke:none;" d="M323 44C320.089 44.4414 317.829 44.8346 319 48C310.666 52.4329 297.587 56.8458 290.603 46.8951C288.27 43.5704 288.222 37.9161 287 34L286 34L286 39L285 39C285.024 30.7002 288.19 29.0213 293 23L289 25C296.072 15.4828 304.824 17.6297 315 19C293.615 1.99425 267.796 42.8433 296 53.0301C299.95 54.4566 304.86 54.2479 309 53.9066C315.418 53.3776 320.311 49.7487 323 44z"/>
<path style="fill:#8b8b8b; stroke:none;" d="M80 18C82.6139 20.9722 85.5482 19.5037 88 17L80 18z"/>
<path style="fill:#fefefe; stroke:none;" d="M289 25L293 23C286.927 28.3818 285.005 30.7231 285 39L286 39L286 34L287 34C287.811 37.9521 288.191 44.569 290.603 47.7863C297.107 56.4613 311.813 53.3745 319 48L317 46C341.631 34.4854 301.075 0.453094 289 25z"/>
<path style="fill:#9c9c9c; stroke:none;" d="M46 18L46 27L47 27L46 18z"/>
<path style="fill:#747474; stroke:none;" d="M56 19L52 26C55.1344 24.3162 57.9491 22.5705 56 19z"/>
<path style="fill:#626262; stroke:none;" d="M315 19L315 20L323 28L324 28C322.391 23.2812 319.719 20.6088 315 19z"/>
<path style="fill:#707070; stroke:none;" d="M293 22L293 23L299 26L299 25L296 24L296 23L300 24L301 24L305 21L293 22z"/>
<path style="fill:#838383; stroke:none;" d="M49 21L50 48L52 48L56 28L49 21z"/>
<path style="fill:#595959; stroke:none;" d="M150 46L155 48C153.213 40.4942 148.206 25.9999 158 24L158 21C143.362 26.3843 155.637 35.8618 150 46z"/>
<path style="fill:#515151; stroke:none;" d="M159 22L159 23L171 22L159 22z"/>
<path style="fill:#848484; stroke:none;" d="M224 21L225 24L222 27L225 25L230 28L224 21z"/>
<path style="fill:#5b5b5b; stroke:none;" d="M355 24L360 23L358 29L359 29C363.4 22.5791 375.529 18.8922 378 29L392 41C386.378 29.2353 377.695 20.097 364 21.7145C360.688 22.1057 357.289 21.3805 355 24z"/>
<path style="fill:#ffffff; stroke:none;" d="M155 48C144.791 42.5731 137.264 44 126 44L127 47L125 47L125 49C134.419 55.4272 141.999 61.8571 154 59C139.993 68.7865 126.789 46.0106 113 46L111 51L115 50L112 52C114.661 56.3379 119.122 57.5709 124 58L121 48L122 48C122.613 59.2031 138.497 67.1123 149 65.7724C153.84 65.1549 158.227 62.1337 163 61L161 55L155 48C162.996 52.3623 172.904 54.0732 182 53C182.137 46.3772 187.015 36.7872 186.097 31.0039C184.804 22.8509 174.195 22.3904 169 26L170 22C165.458 22.013 154.805 22.101 152.046 26.4336C149.882 29.8337 153.807 43.9668 155 48z"/>
<path style="fill:#c0c0c0; stroke:none;" d="M296 23L296 24L300 26L301 25L300 22L296 23z"/>
<path style="fill:#fdfdfd; stroke:none;" d="M359 29L358 29L360 23C351.199 24.792 348.018 36.1842 355 42L357 30L358 30C357.314 35.4309 354.85 42.8067 362 44C364.765 36.2721 368.477 28.9134 376 25C370.132 20.3345 362.173 22.3083 359 29z"/>
<path style="fill:#9d9d9d; stroke:none;" d="M95 23L95 32L96 32L95 23z"/>
<path style="fill:#838383; stroke:none;" d="M307 23L310 25L307 23z"/>
<path style="fill:#8c8c8c; stroke:none;" d="M354 23L339 28L339 29L343 29L349 26L349 34L354 23z"/>
<path style="fill:#a9a9a9; stroke:none;" d="M174 24L174 26L176 26L176 24L174 24z"/>
<path style="fill:#656565; stroke:none;" d="M310 25C312.083 28.0428 313.374 28.8405 317 28L316 24L310 25z"/>
<path style="fill:#7e7e7e; stroke:none;" d="M360 44L360 45L365 45C365.353 37.3932 368.721 30.8821 376 28L376 30C381.003 26.3158 374.923 24.2556 371.093 27.3989C365.726 31.8045 364.634 39.0829 360 44z"/>
<path style="fill:#b8b8b8; stroke:none;" d="M57 25L57 31L58 31L57 25z"/>
<path style="fill:#ffffff; stroke:none;" d="M224 25L221 31C230.072 31 230.153 29.6148 224 25M229 32L229 33L231 37L232 37L238 31L239 31C241.431 33.7719 243.578 32.1384 246 30C240.216 22.7032 234.049 25.5333 229 32z"/>
<path style="fill:#525252; stroke:none;" d="M303 25L306 27L303 25z"/>
<path style="fill:#f1f1f1; stroke:none;" d="M313 25L313 28L315 28L315 25L313 25z"/>
<path style="fill:#fcfcfc; stroke:none;" d="M245 37L241 36L242 40L240 37L238 41C241.662 41.4628 245.301 42.2954 249 41.6705C251.414 41.2628 253.702 40.315 255.999 39.5039C270.021 34.5525 259.953 20.6485 249.39 29.9051C247.195 31.8292 246.11 34.3769 245 37z"/>
<path style="fill:#fefefe; stroke:none;" d="M343 27C343.85 32.0182 344.697 37.3913 350 39L349 26L343 27z"/>
<path style="fill:#626262; stroke:none;" d="M156 27L156 31L158 31L158 27L156 27z"/>
<path style="fill:#3b3b3b; stroke:none;" d="M230 27L230 29L232 29L232 27L230 27z"/>
<path style="fill:#606060; stroke:none;" d="M174 28L177 34L180 29L174 28z"/>
<path style="fill:#7c7c7c; stroke:none;" d="M291 28L293 42L294 42C294.56 37.3773 296.795 33.6788 292 31L293 29L291 28z"/>
<path style="fill:#9f9f9f; stroke:none;" d="M309 28L307 32L309 28z"/>
<path style="fill:#4a4a4a; stroke:none;" d="M324 28L325 36L326 36L324 28z"/>
<path style="fill:#c2c2c2; stroke:none;" d="M336 33L340 30L342 36L345 35C343.797 29.1224 339.168 27.1377 336 33z"/>
<path style="fill:#ffffff; stroke:none;" d="M365 45L366 45L368 37L369 37L368 46L374 47C375.553 40.4676 380.309 35.8943 387 35L376 28C367.965 30.1163 365.166 37.2353 365 45z"/>
<path style="fill:#a7a7a7; stroke:none;" d="M79 29C79.3614 36.7772 83.9684 42.7209 91 46L79 29z"/>
<path style="fill:#9f9f9f; stroke:none;" d="M81 29L81 30L92 42L93 42C92.0836 35.0001 87.8411 30.5709 81 29z"/>
<path style="fill:#808080; stroke:none;" d="M229 29L228 33L229 33L231 29L229 29z"/>
<path style="fill:#7e7e7e; stroke:none;" d="M317 29L320 40L321 40C321.848 35.1238 321.499 31.6839 317 29z"/>
<path style="fill:#606060; stroke:none;" d="M298 30L300 34L299 31L302 31L301 34C306.483 32.8005 301.032 30.0648 298 30z"/>
<path style="fill:#fafafa; stroke:none;" d="M339 30C335.576 34.9261 337.41 36.8164 343 37L339 30z"/>
<path style="fill:#929292; stroke:none;" d="M357 30L355 42L357 42L357 30z"/>
<path style="fill:#636363; stroke:none;" d="M165 31L169 34L165 31z"/>
<path style="fill:#d5d5d5; stroke:none;" d="M222 31C225.629 37.62 233.366 42.2249 240 37L242 40L241 36L246 36L245 31L244 31L239 31L238 31L232 37L231 37L231 33L222 31z"/>
<path style="fill:#fdfdfd; stroke:none;" d="M299 31L299 33L302 33L302 31L299 31z"/>
<path style="fill:#808080; stroke:none;" d="M312 32L312 33L314 36L315 36L316 33L312 32z"/>
<path style="fill:#434343; stroke:none;" d="M335 32C335.731 41.5852 363.124 46.8783 372 48L372 47L368 46L369 37L368 37C363.913 52.0528 355.28 39.1719 349 34L350 39L344 34L343 34L344 38L335 32z"/>
<path style="fill:#fefefe; stroke:none;" d="M292 33L292 36L295 35L295 34L292 33z"/>
<path style="fill:#a3a3a3; stroke:none;" d="M299 35L302 35L301 33L299 35z"/>
<path style="fill:#888888; stroke:none;" d="M311 33C309.98 35.8991 309.772 37.3084 313 38L311 33z"/>
<path style="fill:#f5f5f5; stroke:none;" d="M312 33L312 36L314 36L314 33L312 33z"/>
<path style="fill:#9c9c9c; stroke:none;" d="M324 33L323 45L324 45L324 33z"/>
<path style="fill:#363636; stroke:none;" d="M315 34L313 36L313 37C315.251 36.5267 316.118 36.1397 315 34z"/>
<path style="fill:#fbfbfb; stroke:none;" d="M319 34L319 37L321 36L321 35L319 34z"/>
<path style="fill:#1c1c1c; stroke:none;" d="M59 35L59 43L60 43L59 35z"/>
<path style="fill:#7e7e7e; stroke:none;" d="M83 35L93 46L83 35z"/>
<path style="fill:#b5b5b5; stroke:none;" d="M96 35L96 45L97 45L96 35z"/>
<path style="fill:#707070; stroke:none;" d="M308 35C298.558 38.477 310.918 43.6347 308 35z"/>
<path style="fill:#9f9f9f; stroke:none;" d="M381 36L382 39L388 39L388 35L381 36z"/>
<path style="fill:#acacac; stroke:none;" d="M21 36L21 41L22 41L21 36z"/>
<path style="fill:#9f9f9f; stroke:none;" d="M343 36L339 37L339 38L343 36z"/>
<path style="fill:#303030; stroke:none;" d="M16 37L16 74L17 74C17 63.3512 20.1113 46.7978 16 37z"/>
<path style="fill:#a2a2a2; stroke:none;" d="M161 37L163 40L163 37L161 37z"/>
<path style="fill:#fcfcfc; stroke:none;" d="M304 38L304 39L308 37L304 38z"/>
<path style="fill:#b5b5b5; stroke:none;" d="M376 42L381 37L376 42z"/>
<path style="fill:#fefefe; stroke:none;" d="M376 44L378 43L378 44C377.393 48.0529 379.155 49.1987 383 50L391 44L385 51L390 49L388 52L392 53L395 45L383 37L376 44z"/>
<path style="fill:#ababab; stroke:none;" d="M57 38L54 46L57 43L58 43L59 47L60 47L57 38z"/>
<path style="fill:#b6b6b6; stroke:none;" d="M296 38L296 40L298 40L298 38L296 38z"/>
<path style="fill:#797979; stroke:none;" d="M315 38L313 42L314 42L315 38z"/>
<path style="fill:#7f7f7f; stroke:none;" d="M300 40C297.462 45.3573 299.152 48.1838 305 46L305 48L312 46L312 45C308.637 43.8789 300.936 44.2579 302 40L300 40z"/>
<path style="fill:#9e9e9e; stroke:none;" d="M141 41L141 42L151 45L141 41z"/>
<path style="fill:#3c3c3c; stroke:none;" d="M309 44L312 43L310 46L310 47C313.616 45.8775 314.204 44.5537 313 41L309 44z"/>
<path style="fill:#979797; stroke:none;" d="M317 41L315 45L317 41z"/>
<path style="fill:#4c4c4c; stroke:none;" d="M392 41L392 53C396.292 49.4244 397.316 44.1057 392 41z"/>
<path style="fill:#c3c3c3; stroke:none;" d="M73 42L73 50L74 50L73 42z"/>
<path style="fill:#646464; stroke:none;" d="M165 54C170.571 54.1156 179.252 58.3 183 53C172.778 53.3531 164.415 51.5365 155 48L161 55L163 61C157.775 61.7832 153.179 65.2872 148 65.6968C138.076 66.4816 123.143 58.2605 122 48L121 48C119.96 52.3125 121.289 54.6023 124 58C117.482 57.0194 112.516 54.2744 110 48C113.505 47.1763 117.082 45.1679 120.675 46.858C129.147 50.8428 143.548 69.6322 154 59C141.345 61.3481 135.607 54.0461 125 49L126 44L143 43C137.92 40.8684 130.142 41.5144 125 43.2462C120.788 44.6649 115.167 42.8177 111.434 45.3179C105.856 49.0538 110.941 58.3699 115.044 60.9915C120.719 64.6173 126.853 62.9728 133 63.919C143.427 65.524 164.791 71.6284 165 54z"/>
<path style="fill:#636363; stroke:none;" d="M177 42L177 44L179 44L179 42L177 42z"/>
<path style="fill:#939393; stroke:none;" d="M375 42L371 48L371 49L377 50L378 49L378 43L375 42z"/>
<path style="fill:#c4c4c4; stroke:none;" d="M130 43L130 44L140 44L130 43z"/>
<path style="fill:#f9f9f9; stroke:none;" d="M310 43L310 45L312 45L312 43L310 43z"/>
<path style="fill:#080808; stroke:none;" d="M58 44L57 48L58 44z"/>
<path style="fill:#fdfdfd; stroke:none;" d="M299 44L299 46L302 46L302 44L299 44z"/>
<path style="fill:#5a5a5a; stroke:none;" d="M383 50L377 49L377 50L392 54L392 53L388 52L390 49L385 51L391 44L383 50z"/>
<path style="fill:#929292; stroke:none;" d="M23 46C23.0391 50.3182 23.032 53.6819 27 56L28 46L27 46L26 50L25 50L25 46L23 46z"/>
<path style="fill:#6c6c6c; stroke:none;" d="M131 46L131 48L133 48L133 46L131 46z"/>
<path style="fill:#8c8c8c; stroke:none;" d="M143 46L143 48L145 48L145 46L143 46z"/>
<path style="fill:#5e5e5e; stroke:none;" d="M172.667 46.3333L173.333 46.6667L172.667 46.3333z"/>
<path style="fill:#565656; stroke:none;" d="M50 60L51 60L57 49L58.4421 64L52 78L53 78L58 71L55 94L54 94L51 91L53 102L54 102L56 94L57 94L57 104L59 105L60 105L60 47C53.3499 48.3872 50.6608 53.5487 50 60z"/>
<path style="fill:#a7a7a7; stroke:none;" d="M110 50L113 49L110 50z"/>
<path style="fill:#969696; stroke:none;" d="M305 49L305 51L312 48L305 49z"/>
<path style="fill:#fdfdfd; stroke:none;" d="M56 49C52.1565 54.6411 51.0186 60.2607 51 67C57.6513 62.9331 60.4755 55.7818 56 49z"/>
<path style="fill:#b1b1b1; stroke:none;" d="M111 53L115 50L111 53z"/>
<path style="fill:#737373; stroke:none;" d="M79 51L79 54L80 54L81 51L79 51z"/>
<path style="fill:#2b2b2b; stroke:none;" d="M80 52L88 62L80 52z"/>
<path style="fill:#a2a2a2; stroke:none;" d="M80 54C80.2223 58.0695 89.4507 72.0458 91 65L95 68L95 55L94 55L94 64L93 64L84 55L89 65L80 54z"/>
<path style="fill:#3b3b3b; stroke:none;" d="M143 54L143 56L147 56L147 54L143 54z"/>
<path style="fill:#494949; stroke:none;" d="M222 59L250 56L254 54C243.108 54.0012 232.119 54.7748 222 59z"/>
<path style="fill:#b7b7b7; stroke:none;" d="M301 54L301 55L310 55L301 54z"/>
<path style="fill:#ffffff; stroke:none;" d="M112 55C115.397 61.6283 123.129 62.7042 130 63L112 55z"/>
<path style="fill:#656565; stroke:none;" d="M155 55L154 59L161 57L155 55z"/>
<path style="fill:#151515; stroke:none;" d="M253 57L256 55L253 57z"/>
<path style="fill:#4b4b4b; stroke:none;" d="M255 56L255 57L268 60C264.401 55.8162 260.319 54.4753 255 56z"/>
<path style="fill:#c1c1c1; stroke:none;" d="M17 56L18 65L20 65L17 56z"/>
<path style="fill:#878787; stroke:none;" d="M75 56C75 66.888 76.2335 82.3496 85 90L79 75L80 75L83 79L83 74L90 82L91 82L77.6343 64.5448L75 56z"/>
<path style="fill:#d4d4d4; stroke:none;" d="M234 56L226 61L236 57L234 56z"/>
<path style="fill:#c0c0c0; stroke:none;" d="M239 59L253 59L256 61L250 56L239 59z"/>
<path style="fill:#f3f3f3; stroke:none;" d="M82 57L89 65L82 57z"/>
<path style="fill:#939393; stroke:none;" d="M226 61L226 62L242 60C236.509 55.628 231.949 59.7254 226 61z"/>
<path style="fill:#636363; stroke:none;" d="M254 57L257 60L254 57z"/>
<path style="fill:#f0f0f0; stroke:none;" d="M255 57L265 60L255 57z"/>
<path style="fill:#7d7d7d; stroke:none;" d="M49 58L50 71L59 65L59 58L57 58L51 67L49 58z"/>
<path style="fill:#525252; stroke:none;" d="M349 65C352.989 63.5845 356.238 61.2787 360 64C363.478 62.4817 366.965 59.2833 370.996 59.993C380.478 61.6622 388.974 77.5738 383.258 85.8951C379.464 91.4181 371.134 91.9936 365 91.9174C360.639 91.8633 356.846 89.8266 353 88L353 87L365 83L365 82L362 80L348 78C345.63 82.4559 343.117 84.3804 338 84C343.603 89.4856 350.059 79.1334 358 82C349.885 87.33 353.551 91.8535 362 93.6096C369.27 95.1205 381.777 93.0576 385.543 85.9568C390.611 76.4018 382.864 61.6994 373 58.6535C368.575 57.2874 365.247 59.5386 361 60.081C355.778 60.7479 352.05 59.8859 349 65z"/>
<path style="fill:#aeaeae; stroke:none;" d="M15 59L15 72L16 72L15 59z"/>
<path style="fill:#6f6f6f; stroke:none;" d="M221 59C216.23 70.4276 220.054 76.2351 232 79L222 74L223 64L227 63L227 62L221 63L224 61L221 59z"/>
<path style="fill:#6a6a6a; stroke:none;" d="M242 60L242 61L249 60L242 60z"/>
<path style="fill:#5b5b5b; stroke:none;" d="M249 60L249 61L253 59L249 60z"/>
<path style="fill:#828282; stroke:none;" d="M265 59L257 62L264 61C261.834 68.1399 251.259 67.3806 245 69L245 70L267 70L269 65L270 65L270 69L272 69L268 59L265 66L265 59z"/>
<path style="fill:#ffffff; stroke:none;" d="M358 81L360 81C363.425 72.1713 367.239 66.4807 375 61C363.13 56.091 354.934 70.5272 358 81M223 64L223 72L243 71L244 71C249.841 67.1288 262.702 68.7861 264 61L257 60L223 64z"/>
<path style="fill:#fefefe; stroke:none;" d="M266 60L265 66C267.941 64.3799 268.499 63.3142 268 60L266 60z"/>
<path style="fill:#dddddd; stroke:none;" d="M46 61L46 100L47 100C48.7965 90.7941 49.6246 69.6378 46 61M221 63L226 62L221 63z"/>
<path style="fill:#b8b8b8; stroke:none;" d="M232 64L237 61L232 64z"/>
<path style="fill:#979797; stroke:none;" d="M360 81L365 82L365 83L362 83L362 84L373 82L379 84L379 83L370 82C376.154 76.1831 378.448 77.5565 386 78C382.029 74.5747 377.901 74.8337 373 76L375 73L366 82L368 73L366 74L366 73C369.417 68.784 370.924 63.7769 377 64L376 61C366.724 64.2417 362.494 71.8831 360 81z"/>
<path style="fill:#f8f8f8; stroke:none;" d="M30 62L32 68L32 62L30 62z"/>
<path style="fill:#ffffff; stroke:none;" d="M351 73L354 76L355 76L360 62C351.979 62.194 351.006 65.6277 351 73z"/>
<path style="fill:#f9f9f9; stroke:none;" d="M366 74L368 73L368 74L366 82L382 70L382 69L371 70L380 66C372.738 60.2549 368.657 67.5581 366 74z"/>
<path style="fill:#797979; stroke:none;" d="M353 79L357 80L362 64C355.637 66.4116 355.432 73.371 353 79z"/>
<path style="fill:#fdfdfd; stroke:none;" d="M269 65L265 72L264 72C262.832 66.5498 247.963 71.9166 243 72C247.994 79.0679 273.357 76.6627 269 65z"/>
<path style="fill:#838383; stroke:none;" d="M283 82L285 82L287 75C290.025 81.8541 295.04 84.1001 302 86L292.348 79.7222L288 71L298 67L303 69L300 73L311 75L308 73L312 69L299 65C290.131 67.5551 283.508 72.2262 283 82z"/>
<path style="fill:#383838; stroke:none;" d="M337 72L348 68C350.198 62.1683 338.603 68.3325 337 72z"/>
<path style="fill:#858585; stroke:none;" d="M349 65L347 79L351 79L351 65L349 65z"/>
<path style="fill:#363636; stroke:none;" d="M33 66L32 80L33 80L33 66z"/>
<path style="fill:#f7f7f7; stroke:none;" d="M219 66L220 71L223 67L219 66z"/>
<path style="fill:#fcfcfc; stroke:none;" d="M340 69L340 71L349 77L348 66L340 69z"/>
<path style="fill:#8a8a8a; stroke:none;" d="M371 70L380 68L380 66L371 70z"/>
<path style="fill:#a0a0a0; stroke:none;" d="M28 68L31 69L28 74L29 81L32 85L33 85L31 67L28 68z"/>
<path style="fill:#5a5a5a; stroke:none;" d="M75 67C73.6903 74.0546 72.3214 84.31 75.5725 90.9954C79.2729 98.6046 89.2394 98.1713 93 91C91.0472 92.0219 89.0823 93.2741 86.9954 94.0046C71.7127 99.3543 77.8414 73.7713 75 67z"/>
<path style="fill:#ffffff; stroke:none;" d="M288 71L292.167 80.8333L302 86C295.273 83.4044 290.97 81.2249 287 75C276.589 90.2427 315.908 101.024 319 81L317 83C313.262 80.8839 310.977 83.5774 307 83.5741C296.749 83.5655 286.964 75.0987 298 68L288 71z"/>
<path style="fill:#f4f4f4; stroke:none;" d="M78 68L79 72L80 72L78 68z"/>
<path style="fill:#454545; stroke:none;" d="M244 70L244 72L260 69L244 70z"/>
<path style="fill:#313131; stroke:none;" d="M265 68L264 72L265 72L265 68z"/>
<path style="fill:#535353; stroke:none;" d="M170 85L171 85C172.302 83.5267 173.504 82.1261 175.115 80.9684C188.263 71.5209 187.02 90.3086 187 98L188 98C189.592 87.3543 196.164 76.3675 179 76C191.531 63.9716 199.765 81.1033 204 92C205.123 88.1918 203.014 84.4624 201.336 81C193.578 64.9962 174.462 66.6182 170 85z"/>
<path style="fill:#ababab; stroke:none;" d="M222 73C227.631 77.9642 239.148 80.5244 245 75C240.054 65.049 230.463 71.9697 222 73z"/>
<path style="fill:#3a3a3a; stroke:none;" d="M270 69L258 76L258 77C262.748 76.5823 270.125 74.8155 270 69z"/>
<path style="fill:#777777; stroke:none;" d="M295 69L295 71L297 69L295 69z"/>
<path style="fill:#f7f7f7; stroke:none;" d="M310 70C313.843 79.5936 299.276 77.1892 300 69C290.061 72.0551 303.646 79.4434 308.981 78.6127C314.828 77.702 314.347 72.3989 310 70z"/>
<path style="fill:#3c3c3c; stroke:none;" d="M310 71L311 75L300 73L303 69C289.643 74.3463 319.418 81.1299 310 71z"/>
<path style="fill:#979797; stroke:none;" d="M252 70L252 71L257 71L252 70z"/>
<path style="fill:#2f2f2f; stroke:none;" d="M314 75L315 80C307.585 81.6942 290.639 81.7878 295 70C283.645 76.267 303.409 85.2071 309.995 83.358C313.991 82.2363 317.933 78.4381 314 75z"/>
<path style="fill:#4f4f4f; stroke:none;" d="M312 70L317 74L312 70z"/>
<path style="fill:#8c8c8c; stroke:none;" d="M375 72L375 73L385 74C382.501 69.7266 379.162 70.0346 375 72z"/>
<path style="fill:#fbfbfb; stroke:none;" d="M76 71C76 76.783 74.3274 85.7347 77.179 90.9414C79.7089 95.5606 88.9807 96.9098 88.8333 89.956C88.7071 84.0013 83.1551 79.533 80 75L79 75L85 90L76 71z"/>
<path style="fill:#878787; stroke:none;" d="M125 71C127.626 75.6873 130.758 76.8735 136 77L125 71z"/>
<path style="fill:#0d0d0d; stroke:none;" d="M127 71L127 72L133 73L127 71z"/>
<path style="fill:#3c3c3c; stroke:none;" d="M132 71L136 75L136 77L123 73C129.458 80.2036 133.513 76.4059 140.995 78.7963C148.355 81.1476 150.473 91.3814 151 98C158.982 87.04 142.059 72.0859 132 71z"/>
<path style="fill:#f6f6f6; stroke:none;" d="M233 71L233 72L241 73L233 71z"/>
<path style="fill:#e4e4e4; stroke:none;" d="M308 71L308 73L310 73L310 71L308 71z"/>
<path style="fill:#dddddd; stroke:none;" d="M338 71L341 73L338 71z"/>
<path style="fill:#949494; stroke:none;" d="M340 71C340 74.4029 337.404 71.0632 335.167 73.1667C332.256 75.9025 335.401 82.3585 337 85L340 84L338 74L347 77L340 71z"/>
<path style="fill:#b4b4b4; stroke:none;" d="M115 72L115 73L124 73L115 72z"/>
<path style="fill:#6c6c6c; stroke:none;" d="M293 72L298 76L293 72z"/>
<path style="fill:#b3b3b3; stroke:none;" d="M350 73L354 78L355 77L353 72L350 73z"/>
<path style="fill:#ffffff; stroke:none;" d="M373 76L386 77C382.912 71.1156 377.177 71.2676 373 76z"/>
<path style="fill:#808080; stroke:none;" d="M113 110L114 110L113 102L114 102L115 112C119.252 108.265 114.43 99.9266 114 95L115 95L117 104L118 104C117.474 92.4844 111.705 78.5135 129 78C124.249 73.8067 110.636 68.5825 107.874 78.044C105.18 87.2754 109.383 101.52 113 110z"/>
<path style="fill:#ededed; stroke:none;" d="M293 73C294.529 81.8967 307.211 82.864 314 80L314 79C305.098 80.9552 300.435 77.5835 293 73z"/>
<path style="fill:#7d7d7d; stroke:none;" d="M314 73L316 83L319 81C317.299 87.0547 312.909 89.7113 307 91L307 92C318.149 92.9758 326.914 77.6041 314 73z"/>
<path style="fill:#656565; stroke:none;" d="M16 74C16.9006 85.4115 16.9588 96.6979 18.7037 108C19.1939 111.175 18.6482 117.856 21.5995 119.953C25.7896 122.93 30.3226 116.261 31.3472 113C34.2453 103.778 34.2905 92.2974 32 83L31 83C29.6247 87.1259 32.4324 100.358 27 99L27 106L26 106L27 89C20.3824 94.8398 24.8418 103.333 25 111L29 105L30 105C29.9429 111.802 28.5384 116.917 22 120C21.3673 111.983 19.2118 104.049 19.0147 96C18.8528 89.395 20.1336 79.455 16 74z"/>
<path style="fill:#dcdcdc; stroke:none;" d="M19 74L19 102L20 102C21.5462 93.6713 22.3379 81.9367 19 74z"/>
<path style="fill:#fbfbfb; stroke:none;" d="M83 74L89 81L83 74z"/>
<path style="fill:#c0c0c0; stroke:none;" d="M113 74L113 75L116 75L113 74z"/>
<path style="fill:#a4a4a4; stroke:none;" d="M179 74L183 76L183 75L179 74z"/>
<path style="fill:#ffffff; stroke:none;" d="M338 74L340 85C350.113 82.9407 346.795 74.6392 338 74z"/>
<path style="fill:#c2c2c2; stroke:none;" d="M112 80L115 78L115 80L123 76C118.812 74.7859 114.134 76.1828 112 80z"/>
<path style="fill:#6a6a6a; stroke:none;" d="M239 78L239 79L259 78C252.355 72.771 245.97 76.1921 239 78z"/>
<path style="fill:#373737; stroke:none;" d="M83 76L86 82L83 76z"/>
<path style="fill:#949494; stroke:none;" d="M298 76L298 77L315 80L298 76z"/>
<path style="fill:#ffffff; stroke:none;" d="M370 82L379 83L379 84L373 82L353 87C358.911 93.4653 382 94.6417 384.547 83.9853C387.147 73.1082 373.874 76.8012 370 82z"/>
<path style="fill:#e1e1e1; stroke:none;" d="M132.667 77.3333L133.333 77.6667L132.667 77.3333z"/>
<path style="fill:#0e0e0e; stroke:none;" d="M351 77L351 79L353 79L353 77L351 77z"/>
<path style="fill:#565656; stroke:none;" d="M51 78C49.535 82.0196 47.3054 87.7715 51 91L51 78z"/>
<path style="fill:#545454; stroke:none;" d="M106 78L106 95L107 95L106 78z"/>
<path style="fill:#ffffff; stroke:none;" d="M118 104L117 104L115 95L114 95C114.287 101.281 115.786 113.759 123 115L123 114L118 105L119 105C122.773 118.022 141.29 110.007 152 110C152 100.838 152.209 88.4583 145.529 81.2284C140.7 76.0015 119.918 76.1784 116.279 83.3256C113.304 89.1674 117.476 97.9904 118 104z"/>
<path style="fill:#3d3d3d; stroke:none;" d="M232 78L232 79L248 79L232 78z"/>
<path style="fill:#b5b5b5; stroke:none;" d="M252 78L252 79L256 79L252 78z"/>
<path style="fill:#e5e5e5; stroke:none;" d="M107 79L107 84L108 84L107 79z"/>
<path style="fill:#ececec; stroke:none;" d="M111 80L111 86L112 86L111 80z"/>
<path style="fill:#868686; stroke:none;" d="M86 81L89 93L90 93L92 88L89 81L86 81z"/>
<path style="fill:#9f9f9f; stroke:none;" d="M199 82L201 88L202 88L199 82z"/>
<path style="fill:#383838; stroke:none;" d="M284 82C287.026 92.7509 299.517 94.7606 309 93L309 92C298.128 91.9988 292.022 89.328 284 82z"/>
<path style="fill:#b0b0b0; stroke:none;" d="M44 83L44 101L45 101L44 83z"/>
<path style="fill:#a2a2a2; stroke:none;" d="M48 83L48 90L49 90L48 83z"/>
<path style="fill:#454545; stroke:none;" d="M118 83L118 86L120 83L118 83z"/>
<path style="fill:#a0a0a0; stroke:none;" d="M120 85L123 84L120 85z"/>
<path style="fill:#d3d3d3; stroke:none;" d="M190 83L189 91L190 91L190 83z"/>
<path style="fill:#8b8b8b; stroke:none;" d="M56 84L54 92L55 92L56 84z"/>
<path style="fill:#343434; stroke:none;" d="M121.667 84.3333L122.333 84.6667L121.667 84.3333z"/>
<path style="fill:#5d5d5d; stroke:none;" d="M141 84L141 86L143 86L143 84L141 84z"/>
<path style="fill:#949494; stroke:none;" d="M169 84L170 89L171 89L169 84M181 84L183 87L183 84L181 84z"/>
<path style="fill:#8e8e8e; stroke:none;" d="M306 87L314 85L306 87z"/>
<path style="fill:#b0b0b0; stroke:none;" d="M379 84L381 87L379 84z"/>
<path style="fill:#202020; stroke:none;" d="M112 85L110 86L110 87L112 85z"/>
<path style="fill:#b5b5b5; stroke:none;" d="M113 85L114 90L115 90L113 85z"/>
<path style="fill:#8f8f8f; stroke:none;" d="M121.667 85.3333L122.333 85.6667L121.667 85.3333z"/>
<path style="fill:#e8e8e8; stroke:none;" d="M106 86L107 92L108 92L108 86L106 86z"/>
<path style="fill:#6f6f6f; stroke:none;" d="M138 86L141 88L138 86z"/>
<path style="fill:#5a5a5a; stroke:none;" d="M195 86L197 88L197 86L195 86z"/>
<path style="fill:#b9b9b9; stroke:none;" d="M90 87L90 93C92.4373 90.5889 92.8597 89.1428 90 87z"/>
<path style="fill:#606060; stroke:none;" d="M144 87L143 88L144 91L147 88L144 87z"/>
<path style="fill:#f9f9f9; stroke:none;" d="M111 88L111 91L112 91L111 88z"/>
<path style="fill:#454545; stroke:none;" d="M169 88L163 111L164 111C166.183 104.548 171.419 94.7619 169 88z"/>
<path style="fill:#787878; stroke:none;" d="M202 88C202.449 90.9965 204.579 94.9265 204.018 97.8951C203.068 102.923 191.225 107.027 187 109L190 96L189 96L185 114L192 112L192 111L187 112L187 111C193.4 108.242 203.713 104.327 207 98L208 98L200 105L200 106C212.215 103.786 208.4 94.7561 202 88z"/>
<path style="fill:#6f6f6f; stroke:none;" d="M173 89L173 91L175 91L175 89L173 89z"/>
<path style="fill:#9d9d9d; stroke:none;" d="M373 90L373 91L378 90L373 90z"/>
<path style="fill:#ececec; stroke:none;" d="M113 90L113 95L114 95L113 90z"/>
<path style="fill:#afafaf; stroke:none;" d="M235 90L235 91L246 91L235 90z"/>
<path style="fill:#b3b3b3; stroke:none;" d="M58 91L58 95L59 95L58 91z"/>
<path style="fill:#313131; stroke:none;" d="M260 116L260 115C248.598 115 234.166 117.374 224.015 110.995C209.757 102.034 227.555 93.4853 237 95L237 94L235 93L259 95L259 94L257 94L257 93L265 94C256.515 87.9547 235.407 89.5867 226 93.0941C220.211 95.2525 215.218 100.387 217.743 106.996C222.908 120.514 248.85 116 260 116z"/>
<path style="fill:#adadad; stroke:none;" d="M107 92L107 101L113 110L107 92z"/>
<path style="fill:#3a3a3a; stroke:none;" d="M133 92L133 94L135 94L135 92L133 92z"/>
<path style="fill:#808080; stroke:none;" d="M235 93L237 96L254 100C248.772 94.9969 242.306 91.8421 235 93z"/>
<path style="fill:#ffffff; stroke:none;" d="M239 92L239 93C247.708 93.8967 256.662 100.559 261 108C255.547 102.562 249.828 96.5138 242 95L242 96L257 108C249.255 102.566 241.252 94.0625 231 93.5918C223.652 93.2544 214.451 101.827 220.434 108.786C229.483 119.312 249.362 112.532 261 112L261 111L257 109L257 108L263 109C265.652 112.618 271.131 111.142 270.338 106.035C268.518 94.3125 247.738 92 239 92z"/>
<path style="fill:#cdcdcd; stroke:none;" d="M257 93L257 94L267 99L257 93z"/>
<path style="fill:#7a7a7a; stroke:none;" d="M262 95L267 100L268 100L268 98L269 98L271 107C273.914 100.885 269.659 91.0074 262 95z"/>
<path style="fill:#a8a8a8; stroke:none;" d="M24 94L24 98L25 98L24 94M27 94L27 97L29 94L27 94z"/>
<path style="fill:#fdfdfd; stroke:none;" d="M56 94C54.3068 98.4883 52.1922 103.705 55 108L56 94z"/>
<path style="fill:#939393; stroke:none;" d="M133.667 94.3333L134.333 94.6667L133.667 94.3333z"/>
<path style="fill:#404040; stroke:none;" d="M107 95L107 99L108 99L107 95z"/>
<path style="fill:#414141; stroke:none;" d="M176.333 95.6667L176.667 96.3333L176.333 95.6667z"/>
<path style="fill:#4c4c4c; stroke:none;" d="M238 95L238 96L257 108C252.494 101.329 246.03 96.4315 238 95z"/>
<path style="fill:#6f6f6f; stroke:none;" d="M259 95L262 97L259 95z"/>
<path style="fill:#f3f3f3; stroke:none;" d="M31 96L29 103L31 96z"/>
<path style="fill:#7a7a7a; stroke:none;" d="M225 96L238 104L238 103L228 98L228 97C236.168 99.3234 241.925 103.054 248 109L243 109L243 110L252 112C246.89 101.043 236.446 96.0013 225 96z"/>
<path style="fill:#000000; stroke:none;" d="M152 97L153 106L154 106L152 97z"/>
<path style="fill:#ffffff; stroke:none;" d="M228 97L228 98L248 109C243.032 102.098 236.167 98.691 228 97z"/>
<path style="fill:#404040; stroke:none;" d="M262 97L269 102L269 98L268 98L267 100L262 97z"/>
<path style="fill:#848484; stroke:none;" d="M47 98C44.8564 102.287 44.713 119.143 55 114C59.8826 111.559 55.7107 105.928 60 107L59 103L55 108L53 100L52 100L55 112C45.1243 111.249 49.2976 104.406 47 98z"/>
<path style="fill:#8c8c8c; stroke:none;" d="M153 98L153 101L154 101L153 98z"/>
<path style="fill:#f2f2f2; stroke:none;" d="M207 98L187 111L187 112C192.098 110.986 208.271 104.125 207 98z"/>
<path style="fill:#262626; stroke:none;" d="M125.667 99.3333L126.333 99.6667L125.667 99.3333z"/>
<path style="fill:#686868; stroke:none;" d="M186 99L183 110L184 110L186 99z"/>
<path style="fill:#a1a1a1; stroke:none;" d="M194 99L194 101L196 101L196 99L194 99z"/>
<path style="fill:#393939; stroke:none;" d="M108 100C108.649 114.875 119.997 115.515 132 115L132 114C126.6 114.045 121.232 116.252 118 111L115 112L108 100z"/>
<path style="fill:#919191; stroke:none;" d="M123 100L124 105L127 100L123 100z"/>
<path style="fill:#4d4d4d; stroke:none;" d="M253 100L259 106L253 100z"/>
<path style="fill:#6a6a6a; stroke:none;" d="M336 104C343.684 101.608 347.809 102.793 352 110C366.811 96.777 373.802 116.609 357 124L357 125C377.293 121.324 368.969 93.4548 352 107C349.026 100.955 340.144 96.9071 336 104z"/>
<path style="fill:#565656; stroke:none;" d="M145.667 101.333L146.333 101.667L145.667 101.333z"/>
<path style="fill:#8a8a8a; stroke:none;" d="M216 101L216 106L217 106L216 101z"/>
<path style="fill:#d1d1d1; stroke:none;" d="M113 102L115 111L116 111L113 102z"/>
<path style="fill:#a0a0a0; stroke:none;" d="M152 102L152 107L153 107L152 102z"/>
<path style="fill:#797979; stroke:none;" d="M154 102L152 110C140.852 110.001 124.185 117.324 119 105L118 105C119.854 117.305 130.248 114.238 140 114.015C143.554 113.933 148.594 114.915 151.772 112.972C155.457 110.719 155.461 105.489 154 102z"/>
<path style="fill:#3b3b3b; stroke:none;" d="M272 102L271 109L272 109L272 102z"/>
<path style="fill:#d2d2d2; stroke:none;" d="M340 104C337.772 107.231 337.743 110.521 341 113L343 106C345.637 108.333 345.986 109.623 345 113L350 115L351 115L351 111L348 112L348 107L349 107L350 110C356.622 100.895 335.902 102.218 340 104z"/>
<path style="fill:#515151; stroke:none;" d="M125 105L128 103L125 105z"/>
<path style="fill:#6a6a6a; stroke:none;" d="M146 106L149 103L146 106z"/>
<path style="fill:#888888; stroke:none;" d="M335 103C331.396 110.49 334.537 115.713 339 122L350 123L350 122L335 114L336 106L337 106L338 112L339 112L340 105L335 103z"/>
<path style="fill:#7e7e7e; stroke:none;" d="M340 103L340 104L346 105L340 103z"/>
<path style="fill:#353535; stroke:none;" d="M237 104L244 109L237 104z"/>
<path style="fill:#b7b7b7; stroke:none;" d="M353 110L350 110L349 107L348 107L348 112L351 111L350 117L353 117L352 112L353 112L358 116L357 120L365 116L355 124C362.468 124.051 367.972 118.424 367 111L365 112L365 109L364 109L361 115L354 113C357.975 106.27 361.214 106.611 368 109C364.32 101.988 356.255 103.403 353 110z"/>
<path style="fill:#949494; stroke:none;" d="M259 105L261 108L259 105z"/>
<path style="fill:#8a8a8a; stroke:none;" d="M302 134L303 138L316 137L315 141L316 141L317 136L313 136L313 134L321 130C316.481 131.605 306.898 138.023 305 131L299 130L300 127L297 125L298 122C305.001 126.62 316.498 124.371 314 114L313 114C312.604 119.251 303.051 128.74 300.461 119.829C298.921 114.529 308.505 113.345 310 119L304 116L304 117L305 121C316.547 119.144 308.542 111.972 300 114L300 113L308 111L308 110L301 109L301 108L317 114C316.391 111.497 315.105 110.386 318 110L318 109L310 105C304.228 105.001 297.965 104.737 293.629 109.301C283.78 119.666 286.767 134.6 302 134z"/>
<path style="fill:#363636; stroke:none;" d="M58 106L57 110L58 110L58 106z"/>
<path style="fill:#5f5f5f; stroke:none;" d="M73 108L73 109L80 108L82 121L83 121L84 106L73 108z"/>
<path style="fill:#8b8b8b; stroke:none;" d="M84 106L85 123L84 123L83 120L86 126L87 106L84 106z"/>
<path style="fill:#7d7d7d; stroke:none;" d="M192 111L200 107L192 111z"/>
<path style="fill:#535353; stroke:none;" d="M309 106L309 107L316 109L309 106z"/>
<path style="fill:#f0f0f0; stroke:none;" d="M336 106L335 114L350 122L350 123L341 120C344.919 124.244 350.418 124.884 356 125L365 116L357 120L358 118L357 118C347.26 120.999 340.357 114.241 336 106z"/>
<path style="fill:#989898; stroke:none;" d="M343 106C343 108.838 339.271 108.457 340.333 112C341.704 116.568 348.408 117.341 350 113L345 113C346.28 109.588 346.209 107.927 343 106z"/>
<path style="fill:#eeeeee; stroke:none;" d="M354 113L359 114L359 113L356 113C358.395 108.348 362.292 106.804 365 112L367 111L369 114C367.463 104.493 357.3 104.792 354 113z"/>
<path style="fill:#4c4c4c; stroke:none;" d="M87 107C95.7283 116.445 98.1987 118.369 93 131C102.83 123.516 98.9425 109.41 87 107z"/>
<path style="fill:#545454; stroke:none;" d="M149 107L149 109L151 107L149 107z"/>
<path style="fill:#777777; stroke:none;" d="M356 113L360 109L364 109C360.137 106.439 357.23 109.015 356 113z"/>
<path style="fill:#969696; stroke:none;" d="M73 109L75 120L76 120L76 108L73 109z"/>
<path style="fill:#ffffff; stroke:none;" d="M76 108L76 120L75 120L75 110C70.5596 112.881 72.6292 117.676 74 122L73 122L69 113C67.729 115.641 66.9061 117.998 67.1204 121C69.0007 147.346 113.777 126.974 91 110L92 118L94 115L95 115L90 127C91.5076 120.668 92.6116 110.397 85 108L86 126C81.3088 121.318 80.1336 114.437 80 108L76 108M81 108L84 123L85 123C86.361 117.281 86.7671 111.104 81 108z"/>
<path style="fill:#707070; stroke:none;" d="M162 108C162.296 117.081 183.104 126.888 185 115L184 115L183 119L182 119L183 112C175.429 118.592 173.356 114.199 164 114L162 108z"/>
<path style="fill:#5c5c5c; stroke:none;" d="M257 108L257 109L264 112L263 109L257 108z"/>
<path style="fill:#fdfdfd; stroke:none;" d="M301 108L301 109C305.161 110.268 310.496 110.321 313.214 114.329C319.636 123.803 302.969 124.494 298 122L297 125C317.659 132.942 323.735 108.484 301 108z"/>
<path style="fill:#4b4b4b; stroke:none;" d="M70 112L73 109L70 112z"/>
<path style="fill:#9e9e9e; stroke:none;" d="M90 109L90 127L95 115L94 115L92 118L90 109z"/>
<path style="fill:#595959; stroke:none;" d="M124 109L124 111L126 111L126 109L124 109z"/>
<path style="fill:#373737; stroke:none;" d="M270 109L260 114L260 115C263.955 114.794 270.112 113.907 270 109z"/>
<path style="fill:#fcfcfc; stroke:none;" d="M360 109L361 115L364 109L360 109z"/>
<path style="fill:#929292; stroke:none;" d="M174 110L174 112L176 112L176 110L174 110z"/>
<path style="fill:#d7d7d7; stroke:none;" d="M300 113L300 114C307.522 112.625 315.951 118.105 305 121L306 117L303 116L302 123C310.044 124.541 312.266 119.937 314 113C308.791 110.49 305.276 110.734 300 113z"/>
<path style="fill:#ffffff; stroke:none;" d="M315 110C323.482 125.565 312.772 129.087 299 128L305 131L304 134C318.852 138.262 329.986 117.372 315 110z"/>
<path style="fill:#545454; stroke:none;" d="M317 110C322.462 119.083 322.653 125.351 318 135C326.998 130.282 325.702 114.29 317 110z"/>
<path style="fill:#323232; stroke:none;" d="M24 111L24 114L26 111L24 111z"/>
<path style="fill:#8c8c8c; stroke:none;" d="M69 111L73 122L74 122L69 111z"/>
<path style="fill:#c6c6c6; stroke:none;" d="M255 112L255 113L266 113L255 112z"/>
<path style="fill:#404040; stroke:none;" d="M308 144L308 143C288.391 141.396 283.984 125.977 293 111C273.82 120.942 292.499 143.957 308 144z"/>
<path style="fill:#e3e3e3; stroke:none;" d="M295 111C290.327 117.654 290.316 126.465 298 131L293.346 120L295 111z"/>
<path style="fill:#3d3d3d; stroke:none;" d="M68 112C61.5782 123.464 69.3001 134.341 82 135L82 134C67.1818 131.357 69.9245 122.736 68 112z"/>
<path style="fill:#f3f3f3; stroke:none;" d="M352 112C352.827 115.795 354.171 116.696 358 117L358 116L352 112z"/>
<path style="fill:#8f8f8f; stroke:none;" d="M115.667 113.333L116.333 113.667L115.667 113.333z"/>
<path style="fill:#8a8a8a; stroke:none;" d="M237 113L237 115L263 114L237 113z"/>
<path style="fill:#858585; stroke:none;" d="M226.667 114.333L227.333 114.667L226.667 114.333z"/>
<path style="fill:#ffffff; stroke:none;" d="M304 122C302.338 116.368 305.881 116.858 310 119L311 116C303.82 113.034 294.892 120.476 304 122z"/>
<path style="fill:#adadad; stroke:none;" d="M317 114L315 126L319 125L317 114z"/>
<path style="fill:#ffffff; stroke:none;" d="M294 118L298 119L299 115L294 118z"/>
<path style="fill:#5f5f5f; stroke:none;" d="M344 115L353 120L353 119L348 118L350 117L350 116L344 115z"/>
<path style="fill:#e5e5e5; stroke:none;" d="M348.667 115.333L349.333 115.667L348.667 115.333z"/>
<path style="fill:#a4a4a4; stroke:none;" d="M119 116L119 117L124 117L119 116z"/>
<path style="fill:#c5c5c5; stroke:none;" d="M232 116L232 117L256 117L232 116z"/>
<path style="fill:#e9e9e9; stroke:none;" d="M348 117L348 118L353 119L348 117z"/>
<path style="fill:#838383; stroke:none;" d="M353 119L358 118L353 119z"/>
<path style="fill:#f4f4f4; stroke:none;" d="M295 120L295 123L296 123L295 120z"/>
<path style="fill:#dadada; stroke:none;" d="M289 121L289 125L290 125L291 121L289 121z"/>
<path style="fill:#575757; stroke:none;" d="M340 121L343 123L340 121z"/>
<path style="fill:#fefefe; stroke:none;" d="M287 122C287.038 135.101 305.976 152.584 316 137C300.86 137 293.717 136.797 287 122z"/>
<path style="fill:#404040; stroke:none;" d="M291 122L290 125L291 122z"/>
<path style="fill:#4d4d4d; stroke:none;" d="M137 163C133.141 155.317 120.721 147.087 130 138C130.824 132.528 138.275 124.726 144 128L162 125C137.651 112.055 108.114 149.723 137 163z"/>
<path style="fill:#6c6c6c; stroke:none;" d="M315 123C309.246 127.597 304.898 126.957 298 126L298 127C304.591 129.089 310.499 129.743 317 127L315 123z"/>
<path style="fill:#474747; stroke:none;" d="M343 123L343 124L357 126L343 123z"/>
<path style="fill:#b6b6b6; stroke:none;" d="M146 125L146 126L151 124L146 125z"/>
<path style="fill:#929292; stroke:none;" d="M158 125C160.673 128.954 165.354 130.605 170 130L170 129L164 124L158 125z"/>
<path style="fill:#6c6c6c; stroke:none;" d="M378 129L379 129L380 126L386 129C385.696 122.673 379.578 123.802 378 129z"/>
<path style="fill:#555555; stroke:none;" d="M36 125.468C30.0486 126.568 20.0327 128.687 17.6042 135.04C14.4243 143.359 21.698 164.39 32 162.671C37.732 161.714 47.8793 158.851 50.2577 152.957C54.0786 143.489 47.9352 123.26 36 125.468z"/>
<path style="fill:#ffffff; stroke:none;" d="M144 128C139.246 122.861 129.692 132.727 130 138C123 142.538 128.088 152.737 132.326 157.285C140.922 166.506 154.254 165.242 166 165L166 161L148 160L148 159L167 158L168 163C173.223 160.142 177.203 154.95 178 149L177 149L173 153C176.269 148.901 176.905 146.122 176 141L177 141L178 146L179 146C178.768 140.689 177.817 135.871 173 133L176 138C164.545 129.091 158.668 124.496 144 128z"/>
<path style="fill:#363636; stroke:none;" d="M163 125L163 126L170 129L170 128L163 125z"/>
<path style="fill:#474747; stroke:none;" d="M233 125.529C221.451 128.179 203.08 143.093 220.005 152.91C230.67 159.097 256.304 159.203 267.999 155.941C277.527 153.285 277.607 140.476 270.981 134.594C260.835 125.587 246.438 122.446 233 125.529z"/>
<path style="fill:#ffffff; stroke:none;" d="M37.9992 126.537C32.4298 127.481 20.6676 129.951 18.6466 136.043C16.7919 141.634 23.201 162.12 30.0046 161.477C35.923 160.917 48.085 157.725 49.4761 150.985C50.8441 144.356 46.748 125.054 37.9992 126.537z"/>
<path style="fill:#b1b1b1; stroke:none;" d="M248 126L248 127L253 127L248 126z"/>
<path style="fill:#ffffff; stroke:none;" d="M380 126L379 130C382.194 129.987 384.271 130.403 385 127L380 126z"/>
<path style="fill:#c4c4c4; stroke:none;" d="M231 130L241 133L241 132L234 129L234 128L238 128C234.883 126.737 232.829 127.176 231 130z"/>
<path style="fill:#fbfbfb; stroke:none;" d="M238 129L241 132L241 133C237.116 131.772 233.541 130.126 231 134L236 134L236 135L227 135L229 131L219 136L219 137C224.84 137.053 228.419 138.195 232 143L227 143C230.025 147.24 232.647 149.59 238 149L232 145L232 144C235.672 144.799 239.403 145.911 240 150C244.224 150.196 247.822 150.531 249 155L254 155L253 152L266 151L266 152L255 154L255 155C262.386 155 272.513 156.41 274 147L266 148C267.742 145.31 271.361 145.81 272.867 143.397C276.796 137.105 263.582 133.272 260 132L261 134L260 134L247 132L255 130L255 129L253 129L253 128L256 128L238 129z"/>
<path style="fill:#444444; stroke:none;" d="M365 142C363.896 138.567 363.555 136.715 367 135L367 131L369 133L372 130L377 134L377 133L373 132L374 129L388 130L387 133L392 133L392 142L401 135L397 136L399 131C390.651 130.169 377.753 125.232 370.001 128.283C364.513 130.443 358.46 137.378 365 142z"/>
<path style="fill:#606060; stroke:none;" d="M38 128L40 136L41 136L38 128z"/>
<path style="fill:#939393; stroke:none;" d="M226 130L229 131L227 135L236 135L236 134L231 134L236 131L236 130L231 128L226 130z"/>
<path style="fill:#7f7f7f; stroke:none;" d="M253 128L253 129L255 129L255 130L247 132L261 134L260 132L261 132L268 135L268 134L266 132L253 128z"/>
<path style="fill:#e1e1e1; stroke:none;" d="M256 128L256 129L265 133C262.917 129.342 260.091 128.422 256 128z"/>
<path style="fill:#bebebe; stroke:none;" d="M387 128L387 129L392 129L387 128z"/>
<path style="fill:#9e9e9e; stroke:none;" d="M133 134L133 135L140 129L133 134z"/>
<path style="fill:#898989; stroke:none;" d="M146.333 129.667L146.667 130.333L146.333 129.667z"/>
<path style="fill:#414141; stroke:none;" d="M147 129C147.704 133.519 149.716 135.526 154 137L147 129z"/>
<path style="fill:#7b7b7b; stroke:none;" d="M148 129L152 133L148 129z"/>
<path style="fill:#575757; stroke:none;" d="M168 130L176 138L173 133C177.04 136.636 178.559 140.647 179 146L178 146L177 141L176 141L173 153L177 149L178 149C176.595 155.552 173.188 159.054 168 163L167 158L148 159L148 160L166 161L166 165L159 165C178.176 176.241 191.673 127.527 168 130z"/>
<path style="fill:#6f6f6f; stroke:none;" d="M374 129C375.596 132.902 376.159 134.897 373 138L372 130L367 131L367 135C362.065 136.45 364.045 140.311 367 143L368 143L372 139L373 142L374 142C378.231 137.987 385.231 136.139 391 136L391 135L386 135L386 134L389 134L389 133L388 130L374 129z"/>
<path style="fill:#aeaeae; stroke:none;" d="M31 130L36 143L37 143L38 137L42 137L36 133L36 138L35 138L31 130z"/>
<path style="fill:#dddddd; stroke:none;" d="M373 130L373 132L375 132L375 130L373 130z"/>
<path style="fill:#8e8e8e; stroke:none;" d="M394 130L394 131L398 131L394 130z"/>
<path style="fill:#383838; stroke:none;" d="M90 133L93 131L90 133z"/>
<path style="fill:#f8f8f8; stroke:none;" d="M298 131L301 133L298 131z"/>
<path style="fill:#a8a8a8; stroke:none;" d="M389.667 131.333L390.333 131.667L389.667 131.333M218 134L218 135L223 133L218 134z"/>
<path style="fill:#838383; stroke:none;" d="M249 132L249 133L255 135L255 134L249 132z"/>
<path style="fill:#272727; stroke:none;" d="M380.667 132.333L381.333 132.667L380.667 132.333z"/>
<path style="fill:#0b0b0b; stroke:none;" d="M398 132L397 136L401 135L400 132L398 132z"/>
<path style="fill:#747474; stroke:none;" d="M80 135L80 136L91 134L80 135z"/>
<path style="fill:#d9d9d9; stroke:none;" d="M386 134L386 135L392 134L386 134z"/>
<path style="fill:#595959; stroke:none;" d="M158 137L158 138L166 134L158 137z"/>
<path style="fill:#7a7a7a; stroke:none;" d="M236 136C237.877 139.578 240.032 140.557 244 141L244 140L238 137C242.876 135.883 246.392 136.399 250 140C251.662 132.92 239.692 134.62 236 136z"/>
<path style="fill:#cacaca; stroke:none;" d="M296 134L300 137L296 134z"/>
<path style="fill:#505050; stroke:none;" d="M300 134L303 138L300 134z"/>
<path style="fill:#f1f1f1; stroke:none;" d="M374 134L373 138L376 134L374 134z"/>
<path style="fill:#909090; stroke:none;" d="M402 142L402 135L403 135L404 140L406 140C405.222 130.003 395.432 138.005 402 142z"/>
<path style="fill:#b9b9b9; stroke:none;" d="M16 135L16 139L17 139L16 135z"/>
<path style="fill:#6c6c6c; stroke:none;" d="M27 135L31 159L32 159L33 153L30 147L31 147L33 149L31 137L27 135z"/>
<path style="fill:#656565; stroke:none;" d="M250.667 135.333L251.333 135.667L250.667 135.333z"/>
<path style="fill:#ffffff; stroke:none;" d="M384 145C388.235 142.488 393.807 140.525 393 135C388.314 136.701 385.949 140.547 384 145z"/>
<path style="fill:#f8f8f8; stroke:none;" d="M402 135L402 141L403 141L402 135z"/>
<path style="fill:#7d7d7d; stroke:none;" d="M141 136L141 137L149 138L141 136z"/>
<path style="fill:#868686; stroke:none;" d="M217 136L218 140L214 144L216 145L217 145L218 142L223 145L221 142L224 143L220 138L227 138L217 136z"/>
<path style="fill:#7f7f7f; stroke:none;" d="M256 138L256 139L266 142L266 141L261 139L261 138L272 142C268.738 135.765 261.911 135.159 256 138z"/>
<path style="fill:#ededed; stroke:none;" d="M368.333 136.667L368.667 137.333L368.333 136.667z"/>
<path style="fill:#191919; stroke:none;" d="M375 139C377.634 142.343 380.806 141.19 383 138L389 137L375 139z"/>
<path style="fill:#7c7c7c; stroke:none;" d="M39 137L38 149L39 149L40 141L45 144L39 137z"/>
<path style="fill:#e8e8e8; stroke:none;" d="M216 137L215 141L218 140L216 137z"/>
<path style="fill:#fefefe; stroke:none;" d="M220 138C222.509 141.778 225.799 141.681 230 141L220 138z"/>
<path style="fill:#9f9f9f; stroke:none;" d="M227 138L230 140L227 138z"/>
<path style="fill:#bebebe; stroke:none;" d="M382 141L385 138L382 141z"/>
<path style="fill:#969696; stroke:none;" d="M374 141L375 144L370 145L370 146C377.913 145.001 384.264 146.306 388 138L374 141z"/>
<path style="fill:#fafafa; stroke:none;" d="M387 144L387 145L400 142L398 138L387 144z"/>
<path style="fill:#aeaeae; stroke:none;" d="M30 139L36 144L30 139z"/>
<path style="fill:#575757; stroke:none;" d="M130 139L132 148L133 148L132 139L130 139z"/>
<path style="fill:#f1f1f1; stroke:none;" d="M370 139L368 143L375 144L372 139L370 139z"/>
<path style="fill:#5c5c5c; stroke:none;" d="M143 142L144 145L150 140L143 142z"/>
<path style="fill:#9b9b9b; stroke:none;" d="M158 140L158 141L165 141L158 140z"/>
<path style="fill:#909090; stroke:none;" d="M226 146L223 145L223 146L232 151L225 149L225 150L232 155L240 155L237 151L241 151C239.972 146.069 236.786 144.602 232 144L232 145L238 149L227 143L232 143L231 140L226 146z"/>
<path style="fill:#343434; stroke:none;" d="M308 142L308 143L315 140L308 142z"/>
<path style="fill:#1c1c1c; stroke:none;" d="M402 142L405 140L402 142z"/>
<path style="fill:#4c4c4c; stroke:none;" d="M66 147L70 144L74 146L73 143C84.4924 141.36 92.8282 145.29 99 155C101.469 139.808 72.938 137.69 66 147z"/>
<path style="fill:#2e2e2e; stroke:none;" d="M161 141L161 142L170 143L161 141z"/>
<path style="fill:#818181; stroke:none;" d="M246 145L262 145C258.447 140.269 249.448 140.099 246 145z"/>
<path style="fill:#b5b5b5; stroke:none;" d="M388 141L388 142L392 142L388 141z"/>
<path style="fill:#a5a5a5; stroke:none;" d="M75 142L75 143L79 143L75 142z"/>
<path style="fill:#545454; stroke:none;" d="M153 142L148 152C151.227 149.466 154.17 146.283 153 142z"/>
<path style="fill:#636363; stroke:none;" d="M157 142L160 146L161 145L157 142z"/>
<path style="fill:#8d8d8d; stroke:none;" d="M168 143L168 144L174 144L168 143z"/>
<path style="fill:#f7f7f7; stroke:none;" d="M217 142C218.925 148.854 225.04 153.368 232 154L232 153L225 150L225 149L232 151L217 142z"/>
<path style="fill:#d2d2d2; stroke:none;" d="M221 142L226 146L221 142z"/>
<path style="fill:#151515; stroke:none;" d="M224 142L226 144L226 142L224 142z"/>
<path style="fill:#9d9d9d; stroke:none;" d="M303 142L303 143L308 143L303 142z"/>
<path style="fill:#1a1a1a; stroke:none;" d="M365 142L365 143L372 145L372 144L365 142z"/>
<path style="fill:#6e6e6e; stroke:none;" d="M388 142L388 143L392 143L388 142z"/>
<path style="fill:#2c2c2c; stroke:none;" d="M388 143L373 145L373 146L402 143L388 143z"/>
<path style="fill:#ffffff; stroke:none;" d="M73 143L74 146L70 144L66 147L68 152L66 150L65 150L65 156C71.2795 151.92 74.7357 150.353 82 153L81 143L73 143z"/>
<path style="fill:#8e8e8e; stroke:none;" d="M81 143L82 153C75.2749 149.764 69.4929 150.971 65 157L83 154L82 157L99 155L98 152L90 155L92 152L92 151L89 149L88 149L88 152L87 152L86 143L81 143z"/>
<path style="fill:#0c0c0c; stroke:none;" d="M141 145L144 143L141 145z"/>
<path style="fill:#d2d2d2; stroke:none;" d="M215 143L221 151L215 143z"/>
<path style="fill:#393939; stroke:none;" d="M76 147L80 145L76 147z"/>
<path style="fill:#fbfbfb; stroke:none;" d="M85 144L87 152L88 152L85 144z"/>
<path style="fill:#969696; stroke:none;" d="M87 144L91 149L90 144L87 144z"/>
<path style="fill:#b3b3b3; stroke:none;" d="M140 144L143 146L143 145L140 144z"/>
<path style="fill:#f5f5f5; stroke:none;" d="M90 145L90 155L97 154C96.2903 149.404 94.1715 146.969 90 145z"/>
<path style="fill:#272727; stroke:none;" d="M160 145L163 152L164 152L162 145L160 145z"/>
<path style="fill:#828282; stroke:none;" d="M217 145C218.713 148.808 220.646 151.79 225 152L217 145z"/>
<path style="fill:#848484; stroke:none;" d="M244 145C247.274 150.109 253.757 148.222 259 148L259 146L250 145L251 147L250 147L244 145z"/>
<path style="fill:#838383; stroke:none;" d="M266 148L268 146L274 147C271.438 144.438 266.904 143.782 266 148z"/>
<path style="fill:#7a7a7a; stroke:none;" d="M384 146L384 147L390 147L384 146z"/>
<path style="fill:#c5c5c5; stroke:none;" d="M30 147L30 153L32 153L30 147z"/>
<path style="fill:#686868; stroke:none;" d="M65 147C62.9266 150.89 62.0004 155.174 66 158L65 147z"/>
<path style="fill:#525252; stroke:none;" d="M71 147L75 150L71 147z"/>
<path style="fill:#474747; stroke:none;" d="M78 148L78 150L80 150L80 148L78 148z"/>
<path style="fill:#a9a9a9; stroke:none;" d="M125 148L125 152L126 152L125 148z"/>
<path style="fill:#343434; stroke:none;" d="M32 149L32 153L33 153L32 149z"/>
<path style="fill:#b0b0b0; stroke:none;" d="M65 149L66 152L67 152L67 149L65 149z"/>
<path style="fill:#494949; stroke:none;" d="M67 149L67 152L68 152L67 149z"/>
<path style="fill:#3b3b3b; stroke:none;" d="M89 149L89 151L92 151L92 149L89 149z"/>
<path style="fill:#737373; stroke:none;" d="M25 150L27 153L25 150z"/>
<path style="fill:#565656; stroke:none;" d="M237 151L237 152L244 151L237 151z"/>
<path style="fill:#a2a2a2; stroke:none;" d="M243 151C244.833 152.44 248.141 153.491 245 155L245 156L258 156L258 155L249 155L250 152L243 151z"/>
<path style="fill:#474747; stroke:none;" d="M93 153L96 151L93 153z"/>
<path style="fill:#dedede; stroke:none;" d="M232 151L235 153L232 151z"/>
<path style="fill:#6c6c6c; stroke:none;" d="M253 152C256.211 155.674 261.947 153.285 266 152L253 152z"/>
<path style="fill:#6e6e6e; stroke:none;" d="M363 152L363 153L376 154L363 152z"/>
<path style="fill:#e3e3e3; stroke:none;" d="M73 152L73 153L78 153L73 152z"/>
<path style="fill:#ffffff; stroke:none;" d="M238 152L248 155L238 152z"/>
<path style="fill:#b1b1b1; stroke:none;" d="M256 152L256 153L260 153L256 152z"/>
<path style="fill:#bdbdbd; stroke:none;" d="M27 153L30 157L27 153z"/>
<path style="fill:#8c8c8c; stroke:none;" d="M172 153L171 156L172 153z"/>
<path style="fill:#9a9a9a; stroke:none;" d="M352 158L354 162L354 159L363 154L352 158z"/>
<path style="fill:#fafafa; stroke:none;" d="M354 162C344.514 157.141 346.643 174.577 351.093 178.91C353.609 181.36 357.616 185.791 361.129 186.605C367.763 188.142 373.566 184.566 380 188L381 188L390 182L390 181L387 182L386 179L377 182L376 182L374 178L354 170L354 177L350 175L349 171L352 167C363.836 167.688 363.069 161.267 371 155L370 160L384 165L380 176L383 177C386.231 174.66 389.974 177.124 393 179C399.37 169.72 394.633 159.397 384 156L384 160L385 160L388 159L387 163C381.584 161.671 381.892 159.969 383 155C374.196 152.91 357.346 150.498 354 162z"/>
<path style="fill:#4d4d4d; stroke:none;" d="M376 153L376 154C390.598 155.283 405.975 174.308 388.996 184.517C374.294 193.358 362.818 186.23 349 181C357.001 194.082 387.747 193.622 395.991 180.907C405.146 166.786 389.123 153.11 376 153z"/>
<path style="fill:#4e4e4e; stroke:none;" d="M81 154L81 156L83 156L83 154L81 154z"/>
<path style="fill:#f6f6f6; stroke:none;" d="M86 154L89 156L86 154z"/>
<path style="fill:#b8b8b8; stroke:none;" d="M316 154L316 155L327 155L316 154z"/>
<path style="fill:#fbfbfb; stroke:none;" d="M64 158C64 166.319 64.297 174.041 74 176C72.2872 168.782 74.2827 162.673 81 159L81 160L77 162L81 176L77 175C77.9456 179.413 83.2325 178 87 178L84 175L84 174L90 174L90 177L91 177C97.0028 170.941 86.9817 163.923 81 163L84 157C76.5369 153.838 71.3543 155.902 64 158z"/>
<path style="fill:#ededed; stroke:none;" d="M86 158L97 169L94 169L95 172C101.084 167.406 101.309 162.055 100 155L86 158z"/>
<path style="fill:#505050; stroke:none;" d="M100 155C101.372 165.91 95.3963 178.321 83 179L83 180C93.7964 179.902 108.323 165.986 100 155z"/>
<path style="fill:#919191; stroke:none;" d="M134 155L134 156L144 159L134 155z"/>
<path style="fill:#989898; stroke:none;" d="M226 155L226 156L229 156L226 155z"/>
<path style="fill:#7f7f7f; stroke:none;" d="M300 157L300 158L305 158L299 168C302.906 171.817 300.794 174.018 296 175L298 173L298 172C290.896 169.125 291.805 174.533 294 179L288 177L295 180C296.967 176.622 299.044 176.553 302 179L318 176L318 175L309 173L310 166L311 166L312 170L321 171L320 166L327 167C324.802 166.661 320.383 168.504 324.337 170.321C327.207 171.64 331.952 171.318 335 171L332 170L333 166L329 165L330 161L321 157L333 160C325.706 150.425 310.162 156.191 300 157z"/>
<path style="fill:#a1a1a1; stroke:none;" d="M366 160L374 161L374 160L370 160L371 155L366 160z"/>
<path style="fill:#c0c0c0; stroke:none;" d="M383 155C381.234 159.985 381.295 162.189 387 163L388 159L385 160L384 160L383 155z"/>
<path style="fill:#1d1d1d; stroke:none;" d="M63 156L63 160L64 160L63 156z"/>
<path style="fill:#868686; stroke:none;" d="M74 159L80 156L74 159z"/>
<path style="fill:#b1b1b1; stroke:none;" d="M174 156L174 159L175 159L176 156L174 156z"/>
<path style="fill:#a4a4a4; stroke:none;" d="M236 156L236 157L243 157L236 156z"/>
<path style="fill:#fdfdfd; stroke:none;" d="M321 157L332 161C328.753 156.751 326.117 156.414 321 157z"/>
<path style="fill:#bbbbbb; stroke:none;" d="M83 163C88.7521 163.621 92.3407 168.816 94 174L95 174C95 163.814 91.7837 163.784 86 158L88 158C84.0943 156.72 83.2685 159.549 83 163z"/>
<path style="fill:#505050; stroke:none;" d="M96 157L96 159L98 157L96 157z"/>
<path style="fill:#f4f4f4; stroke:none;" d="M308 159L311 158L308 159z"/>
<path style="fill:#e4e4e4; stroke:none;" d="M318 157L317 160L318 157z"/>
<path style="fill:#515151; stroke:none;" d="M294 163L301 158C296.948 158.224 294.735 158.765 294 163z"/>
<path style="fill:#fcfcfc; stroke:none;" d="M298 163L305 158L298 163z"/>
<path style="fill:#404040; stroke:none;" d="M70 159L74 163L70 159z"/>
<path style="fill:#6c6c6c; stroke:none;" d="M77 176L77 162L81 160C73.5043 158.967 72.7885 172.321 77 176z"/>
<path style="fill:#666666; stroke:none;" d="M84 159L84 162L85 162L84 159z"/>
<path style="fill:#898989; stroke:none;" d="M93 159L98 162L93 159z"/>
<path style="fill:#b0b0b0; stroke:none;" d="M102 159L102 165L103 165L102 159z"/>
<path style="fill:#a3a3a3; stroke:none;" d="M293 159L287 162L287 163L293 161L292 168L297 168L298 172L298 173L296 175C301.039 174.432 304.451 171.372 299 168L300 163L294 163L293 159z"/>
<path style="fill:#454545; stroke:none;" d="M347 165L348 165L352 159L347 165z"/>
<path style="fill:#4b4b4b; stroke:none;" d="M62 160C62.0354 172.827 69.3706 178.894 82 179L82 178C70.8039 177.084 64.0328 171.42 64 160L62 160z"/>
<path style="fill:#6b6b6b; stroke:none;" d="M82 160L81 163L82 160z"/>
<path style="fill:#cacaca; stroke:none;" d="M296.667 160.333L297.333 160.667L296.667 160.333z"/>
<path style="fill:#fdfdfd; stroke:none;" d="M306.667 160.333L307.333 160.667L306.667 160.333z"/>
<path style="fill:#f7f7f7; stroke:none;" d="M319 160L322 163L319 160z"/>
<path style="fill:#3a3a3a; stroke:none;" d="M332 160L335 163L334 166L338 168L332 160z"/>
<path style="fill:#282828; stroke:none;" d="M366 160L367 164L368 164L366 160z"/>
<path style="fill:#fbfbfb; stroke:none;" d="M367 160L367 161L381 169C377.766 163.112 373.333 161.233 367 160z"/>
<path style="fill:#afafaf; stroke:none;" d="M157 161L157 162L162 162L157 161z"/>
<path style="fill:#f9f9f9; stroke:none;" d="M309 162L315 165L317 161L309 162z"/>
<path style="fill:#a3a3a3; stroke:none;" d="M330 161L332 170L336 166L335 163L330 161z"/>
<path style="fill:#898989; stroke:none;" d="M374 161L374 162L382 168L374 161z"/>
<path style="fill:#bbbbbb; stroke:none;" d="M390 161L386 164L387 167L384 168L386 171L383 172L383 173C387.664 174.256 392.495 174.779 395 170L394 168L392 171L386 169L386 168L390 167L389 164L392 164L390 161z"/>
<path style="fill:#848484; stroke:none;" d="M85 162L93 170L85 162z"/>
<path style="fill:#8e8e8e; stroke:none;" d="M192 163L192 164L201 164L201 165L199 166C205.711 168.721 205.593 180.62 206.833 187C207.426 190.051 209.894 194.498 206 195L206 196L209 196L204 200C203.331 195.544 194.596 198.478 191 198L191 197L195 197L195 196L190 196L190 200L184 201C188.668 202.258 204.543 204.039 208.106 200.397C213.077 195.317 207.228 178.073 205.576 172C204.893 169.492 204.475 165.585 202.411 163.782C199.903 161.591 195.047 162.939 192 163z"/>
<path style="fill:#cacaca; stroke:none;" d="M323 163L323 164L327 163L323 163z"/>
<path style="fill:#b3b3b3; stroke:none;" d="M365 162L362 171L363 171C364.867 167.837 367.03 165.38 365 162z"/>
<path style="fill:#696969; stroke:none;" d="M368 162L368 163C369.288 163.509 370.85 163.904 371.928 164.85C379.626 171.601 364.445 178.782 364.877 171.891C365.039 169.309 367.187 166.477 368 164L367 164L363 171L362 171L362 167L361 167C361.52 178.185 369.941 177.682 379 176L379 175L373 175L379 169C376.032 164.912 373.012 162.796 368 162z"/>
<path style="fill:#3f3f3f; stroke:none;" d="M93.3333 163.667L93.6667 164.333L93.3333 163.667z"/>
<path style="fill:#545454; stroke:none;" d="M137 163L137 164L159 167L137 163z"/>
<path style="fill:#414141; stroke:none;" d="M285 163L285 164L289 164L285 163z"/>
<path style="fill:#ababab; stroke:none;" d="M317 166L320 163L317 166z"/>
<path style="fill:#f9f9f9; stroke:none;" d="M329 163L329 165L331 165L331 163L329 163z"/>
<path style="fill:#ffffff; stroke:none;" d="M368 163C367.194 165.456 365.803 167.573 364.938 169.986C360.989 181.003 382.96 171.499 371.981 164.317C370.806 163.548 369.319 163.345 368 163z"/>
<path style="fill:#363636; stroke:none;" d="M80 164L84 168L80 164z"/>
<path style="fill:#313131; stroke:none;" d="M97.3333 164.667L97.6667 165.333L97.3333 164.667z"/>
<path style="fill:#6b6b6b; stroke:none;" d="M122 199L122 200L119 201L119 202L145 203L144 200L146 202L147 202L148 199L156 204C154.893 195.252 151.12 183.594 141 182C141.195 176.74 138.242 174.123 134.197 171.174C131.682 169.341 128.16 164.725 124.875 164.708C115.912 164.66 103.819 182.768 106.619 190.999C108.854 197.572 116.002 198.876 122 199z"/>
<path style="fill:#7f7f7f; stroke:none;" d="M165 195L163 190L166 190L165 185L192 168L192 167L188 166L188 165L192 165C183.233 161.459 167.449 173.321 163.877 181.039C161.919 185.269 160.723 192.217 165 195z"/>
<path style="fill:#cecece; stroke:none;" d="M188 165L188 166L201 165L188 165z"/>
<path style="fill:#747474; stroke:none;" d="M287 164L286 175C290.053 173.654 290.65 170.374 287 168L289 164L287 164z"/>
<path style="fill:#454545; stroke:none;" d="M28 169C32.5917 167.567 36.8546 165.86 41 169C52.079 167.268 59.8557 177.486 52.4421 186.957C42.2944 199.92 15.6949 194.645 19 176C14.2624 182.253 18.6731 190.291 25.0008 193.547C33.3339 197.835 46.1355 196.781 52.6705 189.815C67.8608 173.623 39.3576 156.71 28 169z"/>
<path style="fill:#515151; stroke:none;" d="M66 168L70 165L66 168z"/>
<path style="fill:#a9a9a9; stroke:none;" d="M77 165L77 175L78 175L77 165z"/>
<path style="fill:#4b4b4b; stroke:none;" d="M238 170C226.821 167.378 218.396 184.411 230 190C226.184 184.119 224.002 179.006 233 178L233 177L229 176L229 172L237 174L238 174C240.266 168.834 243.178 165.928 249 167C245.332 162.803 240.235 166.016 238 170z"/>
<path style="fill:#202020; stroke:none;" d="M290 165L293 167L290 165z"/>
<path style="fill:#7a7a7a; stroke:none;" d="M346 165C343.066 171.132 344.302 179.747 352 181L346 165z"/>
<path style="fill:#d1d1d1; stroke:none;" d="M383 165L380 172L379 172L379 169L373 175L379 175L379 176L368 177L368 178L374 178L376 182L377 182L386 179L387 182L390 181L389 184C393.644 182.382 395.458 179.852 396 175L395 175L393 179C390.359 175.699 383.762 173.189 383 177L380 176L383 165z"/>
<path style="fill:#a8a8a8; stroke:none;" d="M73 166L73 177L77 177L77 176L73 166z"/>
<path style="fill:#f2f2f2; stroke:none;" d="M107 190L108 190C113.441 180.837 116.967 172.198 127 167C116.745 163.48 108.44 182.419 107 190z"/>
<path style="fill:#b2b2b2; stroke:none;" d="M150 166L150 167L154 167L150 166z"/>
<path style="fill:#666666; stroke:none;" d="M192 166L192 167L196 167L196 168L191 169L191 170L199 167L192 166z"/>
<path style="fill:#ffffff; stroke:none;" d="M189 171L189 170L196 168L196 167C181.577 168.188 175.3 176.834 165 185L166 194L178 194L177 192L178 192C186.345 196.453 199.653 195 209 195C207.521 189.739 206.528 168.658 200.736 166.967C197.661 166.069 192.191 170.233 189 171z"/>
<path style="fill:#fdfdfd; stroke:none;" d="M238 174L237 174C234.906 170.771 232.527 170.995 229 172L229 176L233 177L233 178C231.733 178.021 230.236 177.871 229 178.25C217.924 181.65 234.133 191.714 236 183L237 183L240 188L232 190C232 187.174 230.858 187.209 228 187L230 190L223 183L221 183C219.981 187.456 224.675 196.647 230 193L231 193C232.686 198.031 237.585 196.091 242 196L242 188L244 188L244 194C250.345 195.156 262.801 194.998 268.891 192.656C273.794 190.77 273.71 184.597 268.811 182.704C262.597 180.302 251.795 185.468 245 186L245 185L254 184C253.554 175.423 248.462 169.934 240 174C242.247 178.939 246.572 181.599 250 176L251 176L243 181L244 185C238.12 177.852 239.741 171.394 249 170C246.377 162.104 239.367 169.013 238 174z"/>
<path style="fill:#545454; stroke:none;" d="M281 166C281.024 174.437 286.172 190.927 295.174 194.215C299.812 195.908 305.771 191.593 310 190.09C323.494 185.292 336.761 185.613 339 169L338 169L334 175C336.254 184.1 313.118 186.871 307 189.309C303.248 190.805 299.697 193.275 296 191C287.156 188.454 283.023 174.118 283 166L281 166z"/>
<path style="fill:#fbfbfb; stroke:none;" d="M313 166L313 169L314 169L313 166z"/>
<path style="fill:#9c9c9c; stroke:none;" d="M397.333 166.667L397.667 167.333L397.333 166.667z"/>
<path style="fill:#8d8d8d; stroke:none;" d="M30 168L30 169L37 168L30 168z"/>
<path style="fill:#ffffff; stroke:none;" d="M26 172L32 173L30 176C25.0056 172.9 23.4324 178.809 23 183L22 183L24 174C10.467 178.018 22.7873 192.99 32 193.895C38.3803 194.522 45.8065 194.084 50.8117 189.606C60.8709 180.607 54.6196 169.574 43 168L43 169C48.706 171.962 53.1271 176.47 54 183L53 183C52.0411 175.826 46.5566 169.811 39 171L40 167L26 172z"/>
<path style="fill:#8f8f8f; stroke:none;" d="M40 167L39 171C46.2722 170.855 51.3654 176.125 53 183L54 183C54 173.002 46.367 171.775 40 167z"/>
<path style="fill:#434343; stroke:none;" d="M94 167L94 169L97 169L97 167L94 167z"/>
<path style="fill:#5a5a5a; stroke:none;" d="M249 167L243 171L243 172C249.98 172.527 253.311 177.315 254 184L245 185L245 186L255 185C254.98 177.891 252.834 172.93 249 167z"/>
<path style="fill:#f0f0f0; stroke:none;" d="M304 170L308 167L304 170z"/>
<path style="fill:#d2d2d2; stroke:none;" d="M316 167L319 170L316 167z"/>
<path style="fill:#fdfdfd; stroke:none;" d="M323 169L326 169L325 167L323 169z"/>
<path style="fill:#e3e3e3; stroke:none;" d="M328 167L330 170L330 167L328 167z"/>
<path style="fill:#d3d3d3; stroke:none;" d="M352 167L349 171L350 175L354 177L354 170L361 172L361 167L352 167z"/>
<path style="fill:#919191; stroke:none;" d="M27 168L19 176L24 174L22 183L23 183C23.7299 178.974 25.1871 174.244 30 176L32 173L26 172L27 168z"/>
<path style="fill:#fbfbfb; stroke:none;" d="M123 172L128 172L127 168L123 172z"/>
<path style="fill:#b1b1b1; stroke:none;" d="M337 168L337 171L338 171L339 168L337 168z"/>
<path style="fill:#414141; stroke:none;" d="M68 171L71 169L68 171z"/>
<path style="fill:#515151; stroke:none;" d="M80 169L79 170L82 172L80 169z"/>
<path style="fill:#3e3e3e; stroke:none;" d="M87 170L87 171L90 172L90 169L87 170z"/>
<path style="fill:#e6e6e6; stroke:none;" d="M129 169L129 171L131 171L129 169z"/>
<path style="fill:#b4b4b4; stroke:none;" d="M189 171L192 171L191 169L189 171z"/>
<path style="fill:#9f9f9f; stroke:none;" d="M250 169L250 170L255 170L254 175L256 169L250 169z"/>
<path style="fill:#4c4c4c; stroke:none;" d="M256 172C262.781 170.426 265.049 173.072 268 179C269.862 172.188 260.775 165.729 256 172z"/>
<path style="fill:#505050; stroke:none;" d="M379 169L379 172L380 172L379 169z"/>
<path style="fill:#8a8a8a; stroke:none;" d="M398 169L398 174L399 174L398 169z"/>
<path style="fill:#5a5a5a; stroke:none;" d="M83 170L83 173L85 170L83 170z"/>
<path style="fill:#ffffff; stroke:none;" d="M251 171L251 173L252 174L254 174L255 170L251 171M256 183L264 181L264 180L257 177C258.228 177.516 259.671 178.344 261.04 178.477C274.697 179.8 253.631 161.113 254.893 177.976C255.016 179.628 255.637 181.388 256 183z"/>
<path style="fill:#d9d9d9; stroke:none;" d="M288 170L287 174L288 174L288 170z"/>
<path style="fill:#828282; stroke:none;" d="M86 171L86 173L88 173L88 171L86 171z"/>
<path style="fill:#808080; stroke:none;" d="M242 171C238.414 174.926 239.918 181.715 244 185L243 181C247.023 180.634 249.69 180.043 251 176L250 176C245.831 180.446 243.002 178.53 240 174L242 171z"/>
<path style="fill:#919191; stroke:none;" d="M32 172L32 173L49 178C44.4853 172.747 38.6104 172.018 32 172z"/>
<path style="fill:#545454; stroke:none;" d="M69 172L69 174L72 174L72 172L69 172z"/>
<path style="fill:#777777; stroke:none;" d="M218 188L219 188L224 184L224 179L220 179C222.019 175.4 223.898 174.311 228 174L228 172C218.236 172.318 219.158 180.211 218 188z"/>
<path style="fill:#525252; stroke:none;" d="M78 173L81 176L78 173z"/>
<path style="fill:#f5f5f5; stroke:none;" d="M120 178L134 177C131.882 170.619 121.896 172.148 120 178z"/>
<path style="fill:#b0b0b0; stroke:none;" d="M233 176L236 173L233 176z"/>
<path style="fill:#e2e2e2; stroke:none;" d="M292 175L295 173L292 175z"/>
<path style="fill:#3a3a3a; stroke:none;" d="M320 176L321 176L325 174C322.387 172.502 320.646 172.988 320 176z"/>
<path style="fill:#a5a5a5; stroke:none;" d="M323 174L322 179L329 174L323 174z"/>
<path style="fill:#525252; stroke:none;" d="M84 174L84 175C86.8414 176.571 89.1798 177.808 90 174L84 174z"/>
<path style="fill:#ffffff; stroke:none;" d="M135 174L136 181L140 181L135 174M220 179C224.029 178.729 226.661 178.012 228 174C223.698 174.141 221.538 174.818 220 179z"/>
<path style="fill:#f6f6f6; stroke:none;" d="M322 176L325 174L322 176z"/>
<path style="fill:#a5a5a5; stroke:none;" d="M25 188L24 183L23 183L25 190L27 190L33 177L51 184C47.6257 181.488 37.6515 174.126 33.3904 176.16C29.8358 177.857 27.5209 184.932 25 188z"/>
<path style="fill:#c8c8c8; stroke:none;" d="M117 175L118 182L119 182L117 175z"/>
<path style="fill:#a4a4a4; stroke:none;" d="M181 175L181 176L190 179L181 175z"/>
<path style="fill:#303030; stroke:none;" d="M305 175L305 177L307 177L305 175z"/>
<path style="fill:#9f9f9f; stroke:none;" d="M57 176L57 180L58 180L57 176z"/>
<path style="fill:#ffffff; stroke:none;" d="M117 176L113 184L119 183L117 176z"/>
<path style="fill:#949494; stroke:none;" d="M203 176L202 184L204 184L203 176z"/>
<path style="fill:#b8b8b8; stroke:none;" d="M80 179L80 180L91 178L80 179z"/>
<path style="fill:#828282; stroke:none;" d="M257 177L264 180L264 181L262 181L262 182C267.455 182.131 271.52 183.323 273 189L274 189L270 178L267 177L266 177L257 177z"/>
<path style="fill:#f3f3f3; stroke:none;" d="M167 178L165 184L166 184L169 178L167 178z"/>
<path style="fill:#bbbbbb; stroke:none;" d="M16 179L16 184L17 184L16 179z"/>
<path style="fill:#ffffff; stroke:none;" d="M126 179L126 190L131 189L130 179L126 179z"/>
<path style="fill:#fafafa; stroke:none;" d="M131 179L135 182L131 179z"/>
<path style="fill:#c9c9c9; stroke:none;" d="M266 179L266 181L268 181L268 179L266 179z"/>
<path style="fill:#636363; stroke:none;" d="M310 185L322 180C316.909 177.927 313.068 181.06 310 185z"/>
<path style="fill:#0c0c0c; stroke:none;" d="M141 180L141 182L143 182L141 180z"/>
<path style="fill:#b4b4b4; stroke:none;" d="M255 180L254 186L262 183L262 182L255 180z"/>
<path style="fill:#a4a4a4; stroke:none;" d="M352 180L351 181L358 186L352 180z"/>
<path style="fill:#737373; stroke:none;" d="M292 182L292 183L296 184L292 182z"/>
<path style="fill:#8d8d8d; stroke:none;" d="M308 182C301.571 187.541 298.264 188.568 291 184C294.324 190.719 308.199 190.815 308 182z"/>
<path style="fill:#ffffff; stroke:none;" d="M132 183L132 187L145 186C142.261 181.776 136.57 183 132 183z"/>
<path style="fill:#c0c0c0; stroke:none;" d="M236 183L236 188L240 188L236 183z"/>
<path style="fill:#9a9a9a; stroke:none;" d="M382 186L382 187L390 184L382 186z"/>
<path style="fill:#fefefe; stroke:none;" d="M111 189L124 188L124 184C119.164 184.1 112.738 183.759 111 189z"/>
<path style="fill:#828282; stroke:none;" d="M377.667 184.333L378.333 184.667L377.667 184.333z"/>
<path style="fill:#696969; stroke:none;" d="M270 185L260 190L260 191C263.94 190.488 270.11 189.958 270 185z"/>
<path style="fill:#b5b5b5; stroke:none;" d="M227 186L227 187L232 190L235 186L227 186z"/>
<path style="fill:#2b2b2b; stroke:none;" d="M235 186L234 189L235 186z"/>
<path style="fill:#919191; stroke:none;" d="M362 187L362 188L380 188C375.439 184.545 367.358 185.863 362 187z"/>
<path style="fill:#767676; stroke:none;" d="M174.667 187.333L175.333 187.667L174.667 187.333z"/>
<path style="fill:#3b3b3b; stroke:none;" d="M219 187C221.451 193.191 230.424 199.981 237 201L237 200L231 193L230 193L229 195L219 187z"/>
<path style="fill:#434343; stroke:none;" d="M274 187L272 192L274 187z"/>
<path style="fill:#dfdfdf; stroke:none;" d="M367 188L367 189L378 187L367 188z"/>
<path style="fill:#ffffff; stroke:none;" d="M138 188L139 194L143 194L143 188L138 188z"/>
<path style="fill:#888888; stroke:none;" d="M242 188L242 196L232 197C239.694 205.325 264.982 199.194 272 192L244 194L244 188L242 188z"/>
<path style="fill:#838383; stroke:none;" d="M199 189L204 194L204 193L199 189z"/>
<path style="fill:#f8f8f8; stroke:none;" d="M115 190L115 192L120 193C119.346 189.946 117.993 190.064 115 190z"/>
<path style="fill:#e0e0e0; stroke:none;" d="M163 190L163 193L165 193L165 190L163 190z"/>
<path style="fill:#4f4f4f; stroke:none;" d="M165 190C165 199.948 173.913 205.824 183.833 201.5C185.702 200.686 183.201 200.088 183 200L183 199L184 196L188 195L188 194L166 194L165 190z"/>
<path style="fill:#888888; stroke:none;" d="M367 190L367 191L373 191L367 190z"/>
<path style="fill:#dcdcdc; stroke:none;" d="M112 191L115 195L112 191z"/>
<path style="fill:#fdfdfd; stroke:none;" d="M126 191L126 192L137 194L137 191L126 191z"/>
<path style="fill:#fcfcfc; stroke:none;" d="M145 191L145 195L153 195L145 191z"/>
<path style="fill:#acacac; stroke:none;" d="M115 192L115 193L119 193L115 192z"/>
<path style="fill:#7a7a7a; stroke:none;" d="M177 192L180 194L177 192z"/>
<path style="fill:#909090; stroke:none;" d="M168 193L168 194L176 194L168 193z"/>
<path style="fill:#ffffff; stroke:none;" d="M117 194L117 195L120 195L117 194z"/>
<path style="fill:#949494; stroke:none;" d="M188 194L188 195L193 195L188 194z"/>
<path style="fill:#f7f7f7; stroke:none;" d="M244 196L244 198C249.649 198.71 254.641 199.472 258 194L244 196z"/>
<path style="fill:#ededed; stroke:none;" d="M122 195L122 197L125 197L125 195L122 195z"/>
<path style="fill:#fcfcfc; stroke:none;" d="M126 195L126 196L129 196L126 195z"/>
<path style="fill:#959595; stroke:none;" d="M166 195L174 200L174 196L174 195L166 195z"/>
<path style="fill:#f9f9f9; stroke:none;" d="M172 196L172 197L175 200L183 196L172 196z"/>
<path style="fill:#262626; stroke:none;" d="M187 195L187 196L189 199L190 199L190 196L209 197L187 195z"/>
<path style="fill:#898989; stroke:none;" d="M200 195L200 196L204 196L200 195z"/>
<path style="fill:#5f5f5f; stroke:none;" d="M72 231L73 231C73.1856 225.296 78.0432 218.407 82 226L79 226L84 229L84 225L88 226L89 234L90 234L90 227L110 235L110 234C105.553 232.835 103.658 229.271 99.7415 227.728C91.7912 224.597 79.3882 223.389 75 215L76 215L78 217L76 214L76 213L81 207C82.6294 192.39 96.155 205.487 104 207C100.182 203.682 89.5512 195.753 84.213 196.877C80.3753 197.686 78.3037 204.905 76.8573 207.995C75.1936 211.55 70.8961 213.193 69.6458 216.313C68.1744 219.986 71.2736 227.147 72 231z"/>
<path style="fill:#818181; stroke:none;" d="M184 196L189 199L189 198L184 196z"/>
<path style="fill:#e0e0e0; stroke:none;" d="M185 196L185 197L189 198L185 196z"/>
<path style="fill:#ffffff; stroke:none;" d="M191 197L191 198L200 198L191 197z"/>
<path style="fill:#dcdcdc; stroke:none;" d="M129 197L129 199L131 199L131 197L129 197z"/>
<path style="fill:#ffffff; stroke:none;" d="M134 197L133 200L136 200L134 197z"/>
<path style="fill:#f0f0f0; stroke:none;" d="M203 197L203 198L204 200L208 197L203 197z"/>
<path style="fill:#f7f7f7; stroke:none;" d="M234 198L234 199L242 199L242 197L234 198z"/>
<path style="fill:#fcfcfc; stroke:none;" d="M83 206L84 206L88 204C85.7252 208.197 83.1253 207.352 79 206L76 213L76 214L78 217L76 215L75 215C76.7987 220.713 85.4318 223.995 91 225L94 223L93 227C97.6063 227.954 100.309 227.778 103 232L105 232L104 226L112 228C116.568 221.073 120.188 216.016 112 211L111 211L108 213L109 210C102.26 206.563 95.2048 201.709 88.0039 199.41C82.7691 197.739 81.2719 201.923 83 206z"/>
<path style="fill:#494949; stroke:none;" d="M114 198L114 199L120 201L120 200L114 198z"/>
<path style="fill:#f2f2f2; stroke:none;" d="M125.667 198.333L126.333 198.667L125.667 198.333z"/>
<path style="fill:#fcfcfc; stroke:none;" d="M139 198L143 201L139 198z"/>
<path style="fill:#f9f9f9; stroke:none;" d="M150 200L154 199L150 200z"/>
<path style="fill:#383838; stroke:none;" d="M360 198L360 199L385 203C378.118 197.873 368.212 198 360 198z"/>
<path style="fill:#7d7d7d; stroke:none;" d="M42 203L50 200C50.1652 203.695 51.6545 204.634 55 206L55 203L56 203L60 216C64.4965 205.28 49.058 191.816 42 203z"/>
<path style="fill:#f0f0f0; stroke:none;" d="M118 199L118 200L122 200L118 199z"/>
<path style="fill:#f5f5f5; stroke:none;" d="M147 199L147 201L149 201L149 199L147 199z"/>
<path style="fill:#f9f9f9; stroke:none;" d="M183 199L183 200L190 200L183 199z"/>
<path style="fill:#767676; stroke:none;" d="M360 215L355 219L369 216L369 215C361.412 213.502 356.269 210.28 356 202L357 202L361 210L358 203L361 202L361 201L358 201L358 200L360 200C349.493 197.857 357.007 211.833 360 215z"/>
<path style="fill:#ffffff; stroke:none;" d="M358 200L358 201L361 201L361 202L358 203C360.687 213.172 376.192 212.697 385 215L385 216L382 215C382.615 216.39 384.565 218.163 384.778 219.611C385.575 225.023 366.781 220.772 370 217L370 216L362 216L362 217L366 217L366 218C361.27 219.116 351.025 224.876 361.019 227.468C369.588 229.689 378.371 230.055 387 228L387 227L375 228L375 227L385 226L385 225L368 225L368 224L393 221C391.99 218.079 391.219 215.845 388 217C382.569 205.819 368.814 211.798 361 204L391 214C390.036 201.328 368.033 197.611 358 200z"/>
<path style="fill:#f9f9f9; stroke:none;" d="M41 203L50.8519 206.871L56 219L52 219L52 220L58 221L57 215L57 214L57 213C60.5145 209.924 58.4942 205.205 55 203L55 206L54 206L50 200L41 203z"/>
<path style="fill:#434343; stroke:none;" d="M87.3333 200.667L87.6667 201.333L87.3333 200.667z"/>
<path style="fill:#c9c9c9; stroke:none;" d="M144 200L144 202L146 202L146 200L144 200z"/>
<path style="fill:#aaaaaa; stroke:none;" d="M361 200L361 201L366 202L361 200z"/>
<path style="fill:#efefef; stroke:none;" d="M52 204L55 202C52.6038 201.425 52.513 201.525 52 204z"/>
<path style="fill:#333333; stroke:none;" d="M136 203L136 204L155 204L136 203z"/>
<path style="fill:#151515; stroke:none;" d="M195 201L195 202L199 202L195 201z"/>
<path style="fill:#4a4a4a; stroke:none;" d="M40 202C34.2449 205.328 27.1091 200.785 23 208C26.9728 205.97 30.9401 203.188 35 206L31 205L32 208L43 208L42 202L40 202z"/>
<path style="fill:#8f8f8f; stroke:none;" d="M45 205L48 202L45 205z"/>
<path style="fill:#b5b5b5; stroke:none;" d="M177 202L177 203L181 203L177 202z"/>
<path style="fill:#fdfdfd; stroke:none;" d="M356 202C356.151 214.801 366.698 215 377 215L377 214C366.891 213.559 360.484 211.008 356 202z"/>
<path style="fill:#898989; stroke:none;" d="M369 202L369 203L387 209L369 202z"/>
<path style="fill:#838383; stroke:none;" d="M379 202L379 203C388.868 207.109 392.675 211.768 395 222L396 222L391 205L379 202z"/>
<path style="fill:#6e6e6e; stroke:none;" d="M289 226L295 225L290 210L296 208L292 211L298 224L296 223L294 229C304.826 230.82 295.967 215.543 299 210C301.556 218.052 307.691 217.353 315 216L315 215L313 213L320 213L321 213C323.775 216.104 327.683 216.504 329 212L334 212L335 216L330 217L330 218C335.094 217.737 338.667 221.248 332.89 224.721C328.471 227.379 322.939 226.999 318 227C332.298 235.397 343.343 219.084 332.471 207.148C327.999 202.24 319.936 203.728 314 203.961C305.446 204.298 286.785 204.117 285.632 216.001C285.301 219.414 287.735 222.956 289 226z"/>
<path style="fill:#fafafa; stroke:none;" d="M22 217L26 214L26 220L23 219L25 225L30 222L24 210L42 214L38 208L44 211L31 205L35 206C28.3526 198.512 22.1192 211.433 22 217z"/>
<path style="fill:#000000; stroke:none;" d="M81 204L81 207L82 207L81 204z"/>
<path style="fill:#5b5b5b; stroke:none;" d="M82 205C84.2423 208.94 86.7468 208.087 88 204L82 205z"/>
<path style="fill:#999999; stroke:none;" d="M90 204L93 207L90 204z"/>
<path style="fill:#d2d2d2; stroke:none;" d="M137 204L137 205L155 205L137 204z"/>
<path style="fill:#909090; stroke:none;" d="M361 204C366.693 212.582 381.05 207.36 388 217L392 217C386.627 206.421 370.87 207.801 361 204z"/>
<path style="fill:#777777; stroke:none;" d="M43 207L43 208L45 210L38 208L42 214L35 212L35 217L37 214L41 215L41 216L38 216L43 220L43 218L56 219L55 215L54 218C51.6895 210.183 53.5496 203.803 43 207z"/>
<path style="fill:#bababa; stroke:none;" d="M323 205L323 206L331 208L323 205z"/>
<path style="fill:#fafafa; stroke:none;" d="M302 210L309 211L308 208L313 207L311 211L317 206C311.946 206 304.017 204.264 302 210z"/>
<path style="fill:#b9b9b9; stroke:none;" d="M320 206L317 207L317 208L320 206z"/>
<path style="fill:#444444; stroke:none;" d="M390 206L398 220L399 220C398.92 213.241 396.229 208.907 390 206z"/>
<path style="fill:#515151; stroke:none;" d="M26 207L26 209L28 209L28 207L26 207z"/>
<path style="fill:#fafafa; stroke:none;" d="M47 219C58.8239 216.947 45.6985 199.646 46.8349 213.976C46.968 215.655 46.9861 217.317 47 219z"/>
<path style="fill:#5d5d5d; stroke:none;" d="M56 207L56 212L58 207L56 207z"/>
<path style="fill:#646464; stroke:none;" d="M89.3333 207.667L89.6667 208.333L89.3333 207.667z"/>
<path style="fill:#313131; stroke:none;" d="M95 207L98 209L95 207z"/>
<path style="fill:#6c6c6c; stroke:none;" d="M104 207L104 208L109 210L108 213L111 211L112 211C119.785 217.667 114.669 220.566 112 229C124.017 218.706 117.741 209.374 104 207z"/>
<path style="fill:#4b4b4b; stroke:none;" d="M22 208L23 234L32 232C33.0269 224.202 50.6283 227.831 56 229L56 228L47 221L36 217L31 221C28.5415 213.225 29.8656 210.206 38 213C33.7651 208.202 29.7297 209.888 24 210L27 212L30 222L25 225L23 219L26 220L26 214L22 217L22 208z"/>
<path style="fill:#2f2f2f; stroke:none;" d="M43 208L45 210L45 208L43 208z"/>
<path style="fill:#bfbfbf; stroke:none;" d="M53 208L53 218L54 218L53 208z"/>
<path style="fill:#6c6c6c; stroke:none;" d="M233 235L233 234L227 232L243 232L243 231L219 226L238 220L238 219L232 217L232 216L242 215L242 214L236 214L236 213L250 213L250 214L246 214L246 215L253 215L250 212L250 211L258 211L258 210L254 210L254 209L256 209C247.259 205.341 234.105 212.335 226 215.537C222.505 216.918 218.359 217.642 216.323 221.189C211.743 229.167 227.359 234.419 233 235z"/>
<path style="fill:#fcfcfc; stroke:none;" d="M290 210C293.05 216.984 295.802 220.299 293 228C296.054 227.346 295.936 225.993 296 223L298 224L292 211L296 208L290 210z"/>
<path style="fill:#343434; stroke:none;" d="M92 209L91 211L93 211L92 209z"/>
<path style="fill:#5e5e5e; stroke:none;" d="M99 212L103 209L99 212z"/>
<path style="fill:#0c0c0c; stroke:none;" d="M254 209L254 210L265 213L254 209z"/>
<path style="fill:#ffffff; stroke:none;" d="M321 212L325 209L321 212z"/>
<path style="fill:#f2f2f2; stroke:none;" d="M328 209L329 212L328 209z"/>
<path style="fill:#fefefe; stroke:none;" d="M31 221L36 219C33.8227 207.524 26.8591 211.184 31 221z"/>
<path style="fill:#9f9f9f; stroke:none;" d="M80 210L80 212L82 212L82 210L80 210z"/>
<path style="fill:#aeaeae; stroke:none;" d="M158 210L157 213L154 212L153 216L157 217L161 212L161 211L158 210z"/>
<path style="fill:#858585; stroke:none;" d="M159 210L159 211L161 212L157 216L184 222C180.881 210.917 168.649 210 159 210z"/>
<path style="fill:#ffffff; stroke:none;" d="M298 210L299 230C308.179 230 325.974 229.788 333.772 224.721C341.892 219.445 332.087 217.63 327 220L335 216L334 212L329 212C326.719 215.673 324.409 215.151 321 213L320 213L313 213L315 215L315 216L306 217L309 222L298 210z"/>
<path style="fill:#b4b4b4; stroke:none;" d="M361 210L361 211L377 214L377 215L369 215L368 218C373.009 221.259 389.92 225.617 382 215L385 216C379.132 211.36 368.323 210.583 361 210z"/>
<path style="fill:#aeaeae; stroke:none;" d="M391 210L393 221L376 224L376 225L385 225L385 226L375 227L375 228L387 227L387 228C377.944 229.681 343.153 226.253 366 218L366 217C361.62 216.613 355.091 216.883 354 222L351 225L353 224L353 225C352.93 229.587 356.401 232.097 361 232.385C373.444 233.164 406.793 228.985 391 210z"/>
<path style="fill:#878787; stroke:none;" d="M87 214L91 215L90 212L93 212C90.2378 210.409 87.7139 210.669 87 214z"/>
<path style="fill:#474747; stroke:none;" d="M96 211L98 214L98 211L96 211z"/>
<path style="fill:#8d8d8d; stroke:none;" d="M105 211L105 214L107 211L105 211z"/>
<path style="fill:#555555; stroke:none;" d="M179 238L179 237C170.311 236.999 161.593 236.014 153 234.728C150.085 234.292 144.908 234.008 145.086 229.941C145.352 223.867 153.34 219.983 156 215L153 216L154 212L158 212C150.105 209.012 132.621 225.421 138.032 233.681C140.163 236.935 144.817 235.249 148 235.529C158.445 236.445 168.443 238 179 238z"/>
<path style="fill:#dadada; stroke:none;" d="M162 214L166 212L162 214z"/>
<path style="fill:#e2e2e2; stroke:none;" d="M236 213L236 214L247 211L236 213z"/>
<path style="fill:#ffffff; stroke:none;" d="M250 211L250 212L253 215L232 216L232 217L238 219L238 220L219 226L254 232.278L263 229L275 229L275 227C271.603 225.544 263.734 224.082 263 229L259 226L267 222L269 223L270 223C268.163 218.665 265.957 215.216 261 215C258.545 210.548 254.661 211.004 250 211z"/>
<path style="fill:#121212; stroke:none;" d="M90 212L90 214L92 214L90 212z"/>
<path style="fill:#c7c7c7; stroke:none;" d="M166 214L169 212L166 214z"/>
<path style="fill:#9c9c9c; stroke:none;" d="M242 213L242 215L250 214L242 213z"/>
<path style="fill:#545454; stroke:none;" d="M57 213L58 221C52.5367 220.445 52.9356 224.763 57 227L55 223L59 228L60 228L60 213L57 213z"/>
<path style="fill:#7d7d7d; stroke:none;" d="M84 213L83 220L88 215L84 213z"/>
<path style="fill:#d2d2d2; stroke:none;" d="M171 215L176 215L171 215z"/>
<path style="fill:#bbbbbb; stroke:none;" d="M261 215L264 213L261 215z"/>
<path style="fill:#585858; stroke:none;" d="M264 213L268 224L275 225L276 228L263 229L252 233L252 234C255.4 234 265.219 229.124 264 234C267.425 233.287 274.132 232.148 275.914 228.721C278.675 223.41 268.39 214.259 264 213z"/>
<path style="fill:#b2b2b2; stroke:none;" d="M396 213L399 223L396 213z"/>
<path style="fill:#fefefe; stroke:none;" d="M37 214C37.9181 219.929 41.2464 221.882 47 221L53 225L53 221L43 218L43 220C41.1347 218.92 36.9042 216.546 41 216L37 214z"/>
<path style="fill:#fdfdfd; stroke:none;" d="M42 214L45 216L42 214z"/>
<path style="fill:#7e7e7e; stroke:none;" d="M80 214L79 218L82 214L80 214z"/>
<path style="fill:#7a7a7a; stroke:none;" d="M93 214L93 217L96 216L96 215L93 214z"/>
<path style="fill:#5b5b5b; stroke:none;" d="M107 214L106 215L106 216L107 217L108 217L109 216L109 215L107 214z"/>
<path style="fill:#565656; stroke:none;" d="M102 215L102 218L104 218L104 215L102 215z"/>
<path style="fill:#f7f7f7; stroke:none;" d="M149 215L148 221L149 221L149 215z"/>
<path style="fill:#ffffff; stroke:none;" d="M184 237C183.877 222.133 171.34 209.659 156 216.92C152.015 218.806 141.444 226.905 145.222 232.4C148.278 236.845 162.14 235.784 167 236.424C172.651 237.169 178.309 237 184 237z"/>
<path style="fill:#f5f5f5; stroke:none;" d="M309.667 215.333L310.333 215.667L309.667 215.333z"/>
<path style="fill:#4f4f4f; stroke:none;" d="M97 216L97 219L99 216L97 216z"/>
<path style="fill:#8c8c8c; stroke:none;" d="M104 216L108 220L104 216z"/>
<path style="fill:#a7a7a7; stroke:none;" d="M113 216L113 218L115 218L115 216L113 216z"/>
<path style="fill:#e3e3e3; stroke:none;" d="M175 216L175 217L179 217L175 216z"/>
<path style="fill:#6c6c6c; stroke:none;" d="M244 218L244 219L253 221L253 220L250 219L250 218L266 222C261.024 214.403 251.518 216.055 244 218z"/>
<path style="fill:#b6b6b6; stroke:none;" d="M304 216L309 222L304 216z"/>
<path style="fill:#404040; stroke:none;" d="M90 217L93 219L90 217z"/>
<path style="fill:#fafafa; stroke:none;" d="M216 225L235 220C228.188 215.147 219.565 217.54 216 225z"/>
<path style="fill:#b8b8b8; stroke:none;" d="M329 217L327 220L329 217z"/>
<path style="fill:#323232; stroke:none;" d="M398 223L397 223C390.002 231.964 354.764 242.397 353 224L351 225L351 224L354 222L355 218C348.265 221.535 349.832 229.084 356.019 232.583C366.285 238.389 394.368 235.895 398 223z"/>
<path style="fill:#282828; stroke:none;" d="M49 220L49 221L53 221L49 220z"/>
<path style="fill:#ffffff; stroke:none;" d="M72 219L72 222L73 222L72 219z"/>
<path style="fill:#4b4b4b; stroke:none;" d="M109 222L115 221C112.483 219.559 110.866 219.72 109 222z"/>
<path style="fill:#f9f9f9; stroke:none;" d="M146 219L146 223L147 223L146 219z"/>
<path style="fill:#fdfdfd; stroke:none;" d="M291 219L293 223L294 223L291 219z"/>
<path style="fill:#d7d7d7; stroke:none;" d="M374 219L374 220L383 221L374 219z"/>
<path style="fill:#fefefe; stroke:none;" d="M396 219C393.335 232.088 372.573 231.993 362 232L362 233C370.016 234.908 401.45 233.145 396 219z"/>
<path style="fill:#555555; stroke:none;" d="M26 220L26 222L28 222L28 220L26 220z"/>
<path style="fill:#838383; stroke:none;" d="M31 222L32 225L38 220L31 222z"/>
<path style="fill:#5e5e5e; stroke:none;" d="M93 220C95.9023 223.244 98.647 224.146 101 220L93 220z"/>
<path style="fill:#6b6b6b; stroke:none;" d="M104 220L107 223L104 220z"/>
<path style="fill:#585858; stroke:none;" d="M184 220L181 222L184 236L185 236L187 233L184 227L188 234L189 234L188 224L187 224L183 223C185.566 222.449 185.86 221.86 184 220z"/>
<path style="fill:#e7e7e7; stroke:none;" d="M37 221L34 224L34 225L40 223L37 221z"/>
<path style="fill:#efefef; stroke:none;" d="M75 228L74 225C78.0156 227.448 75.8094 229.616 74 233L77 232L75 237L81 237L79 230L83 230L82 233L87 231L88 226L84 225L84 229L79 226L82 226C79.653 218.297 70.8622 224.219 75 228z"/>
<path style="fill:#535353; stroke:none;" d="M86 221L86 223L88 223L88 221L86 221z"/>
<path style="fill:#5d5d5d; stroke:none;" d="M253 221L253 222L257 223L257 222L253 221z"/>
<path style="fill:#727272; stroke:none;" d="M101 222L101 225L103 225L103 222L101 222z"/>
<path style="fill:#676767; stroke:none;" d="M229 224C234.406 232.87 247.057 229.584 255 227C247.018 221.306 237.928 222.687 229 224z"/>
<path style="fill:#a4a4a4; stroke:none;" d="M267 222L262 225L262 226L270 225L269 222L267 222z"/>
<path style="fill:#545454; stroke:none;" d="M302 222L307 225L307 224L302 222z"/>
<path style="fill:#b1b1b1; stroke:none;" d="M30 223L31 226L27 225L27 226L35 225L30 223z"/>
<path style="fill:#d5d5d5; stroke:none;" d="M55 223L57 227L51 225L51 226L59 228L55 223z"/>
<path style="fill:#4c4c4c; stroke:none;" d="M77 225L80 223L77 225z"/>
<path style="fill:#282828; stroke:none;" d="M90 223L90 224L94 226L90 223z"/>
<path style="fill:#696969; stroke:none;" d="M109 223L109 225L111 225L111 223L109 223z"/>
<path style="fill:#f9f9f9; stroke:none;" d="M141 223L142 228L143 228L141 223z"/>
<path style="fill:#737373; stroke:none;" d="M358 225L368 224C364.756 222.639 360.437 222.211 358 225z"/>
<path style="fill:#fcfcfc; stroke:none;" d="M38 227L46 225C42.5499 224.06 40.1588 223.946 38 227z"/>
<path style="fill:#ffffff; stroke:none;" d="M231 225L231 226C238.553 227.747 243.311 229.161 251 227C244.764 223.191 237.894 224.129 231 225z"/>
<path style="fill:#a9a9a9; stroke:none;" d="M307 224L307 226L312 226L312 224L307 224z"/>
<path style="fill:#5c5c5c; stroke:none;" d="M368 224L368 225L376 225L368 224z"/>
<path style="fill:#212121; stroke:none;" d="M74.6667 225.333L75.3333 225.667L74.6667 225.333z"/>
<path style="fill:#818181; stroke:none;" d="M76 225L75 228C71.3223 230.838 72.8964 235.034 74 239L102 235L102 234L83 236L82 233L83 230L79 230L81 237L75 237L74 231C76.8118 229.373 77.4961 227.982 76 225z"/>
<path style="fill:#787878; stroke:none;" d="M95.6667 225.333L96.3333 225.667L95.6667 225.333z"/>
<path style="fill:#7e7e7e; stroke:none;" d="M104 226L104 233L108 234C109.79 229.444 110.448 225.075 104 226z"/>
<path style="fill:#a7a7a7; stroke:none;" d="M274 225L276 228L274 225z"/>
<path style="fill:#1c1c1c; stroke:none;" d="M290 225C292.309 229.694 295.892 231.473 301 232L301 231L293 228L294 225L290 225z"/>
<path style="fill:#ffffff; stroke:none;" d="M26 226L24 233L30 229L28 226L26 226M31 231L40 233L40 232L37 229L42 230L41 233L46 233L49 228L47 232L53 229C48.8524 225.239 33.9825 226.186 31 231z"/>
<path style="fill:#f8f8f8; stroke:none;" d="M139 226C138.11 229.918 137.818 232.611 142 234L139 226z"/>
<path style="fill:#707070; stroke:none;" d="M259 226L263 229L263 226L259 226z"/>
<path style="fill:#646464; stroke:none;" d="M390.667 226.333L391.333 226.667L390.667 226.333z"/>
<path style="fill:#eaeaea; stroke:none;" d="M90 227L89 235L102 234L90 227z"/>
<path style="fill:#f3f3f3; stroke:none;" d="M184 227L188 231L184 227z"/>
<path style="fill:#474747; stroke:none;" d="M46 231L49 228L46 231z"/>
<path style="fill:#aaaaaa; stroke:none;" d="M47 232L46 229L45 229L46 233L32 232L32 233C42.6246 236.872 49.9621 232.209 60 229L47 232z"/>
<path style="fill:#b9b9b9; stroke:none;" d="M111 228L108 234L111 228z"/>
<path style="fill:#252525; stroke:none;" d="M304 230L304 231L321 229L304 230z"/>
<path style="fill:#535353; stroke:none;" d="M37 229C37.6544 232.054 39.0066 231.936 42 232L42 230L37 229z"/>
<path style="fill:#474747; stroke:none;" d="M92 229L92 231L94 229L92 229z"/>
<path style="fill:#383838; stroke:none;" d="M112 229L110 234L112 229z"/>
<path style="fill:#b3b3b3; stroke:none;" d="M227 232L232 236L252 235L252 233L227 232z"/>
<path style="fill:#565656; stroke:none;" d="M299 230L299 231L307 232L299 230z"/>
<path style="fill:#101010; stroke:none;" d="M84.6667 231.333L85.3333 231.667L84.6667 231.333z"/>
<path style="fill:#c1c1c1; stroke:none;" d="M83 236L89 235L89 234L88 231L83 236z"/>
<path style="fill:#656565; stroke:none;" d="M95 231L95 233L97 233L97 231L95 231z"/>
<path style="fill:#a3a3a3; stroke:none;" d="M187 231L185 232L178 238L178 239C183.515 238.996 191.277 238.337 187 231z"/>
<path style="fill:#484848; stroke:none;" d="M75 232L75 234L77 234L77 232L75 232z"/>
<path style="fill:#6a6a6a; stroke:none;" d="M91 234L94 232L91 234z"/>
<path style="fill:#cbcbcb; stroke:none;" d="M257 232L257 233L265 233L257 232z"/>
<path style="fill:#1d1d1d; stroke:none;" d="M87.6667 233.333L88.3333 233.667L87.6667 233.333z"/>
<path style="fill:#ffffff; stroke:none;" d="M252 234L252 235L262 234L252 234z"/>
<path style="fill:#606060; stroke:none;" d="M234 235L234 236C243.306 238.216 254.915 237.88 264 235L234 235z"/>
</svg>
