<?xml version="1.0" standalone="no"?>
<!DOCTYPE svg PUBLIC "-//W3C//DTD SVG 20010904//EN"
 "http://www.w3.org/TR/2001/REC-SVG-20010904/DTD/svg10.dtd">
<svg version="1.0" xmlns="http://www.w3.org/2000/svg"
 width="512.000000pt" height="512.000000pt" viewBox="0 0 512.000000 512.000000"
 preserveAspectRatio="xMidYMid meet">

<g transform="translate(0.000000,512.000000) scale(0.100000,-0.100000)"
fill="#000000" stroke="none">
<path d="M2463 4961 c-83 -28 -209 -142 -312 -280 -59 -80 -139 -226 -161
-294 l-12 -38 -41 24 c-100 58 -247 94 -311 76 -77 -21 -122 -83 -150 -206
-23 -102 -19 -223 10 -315 4 -15 -1 -18 -29 -18 -55 0 -158 -36 -223 -78 -123
-80 -199 -206 -213 -357 l-6 -60 -390 -5 c-388 -5 -390 -5 -439 -29 -63 -31
-118 -86 -153 -153 l-28 -53 0 -535 0 -535 30 -54 c35 -63 91 -114 152 -137
l43 -17 0 -642 0 -642 23 -21 c13 -12 31 -22 40 -22 15 0 17 -12 17 -90 0 -69
-3 -90 -14 -90 -7 0 -25 -9 -40 -21 -56 -44 -20 -162 63 -206 l44 -23 2197 0
2197 0 44 23 c27 15 52 38 66 63 l23 39 0 815 0 815 51 23 c63 30 124 90 153
151 21 45 21 55 21 571 l0 525 -26 56 c-33 69 -89 127 -155 160 -49 24 -51 24
-439 29 l-390 5 -6 60 c-14 151 -90 277 -213 357 -65 42 -168 78 -223 78 -27
0 -34 3 -29 15 16 43 28 157 23 224 -13 165 -72 275 -160 299 -65 18 -171 -5
-288 -64 l-67 -33 -17 47 c-51 136 -158 303 -266 413 -153 156 -261 197 -396
150z m-693 -681 c33 -11 83 -34 111 -52 49 -30 51 -32 45 -67 -13 -80 -18
-229 -8 -279 10 -54 10 -54 -26 -87 l-36 -32 -50 39 c-27 22 -71 50 -97 63
-53 27 -71 60 -90 170 -12 72 -8 132 17 214 13 47 17 51 45 51 16 0 57 -9 89
-20z m1714 -32 c24 -85 28 -139 16 -211 -17 -110 -35 -144 -89 -172 -26 -13
-70 -41 -97 -63 l-50 -39 -36 32 c-36 33 -36 33 -26 87 10 50 6 168 -8 269
l-6 46 51 31 c61 38 154 71 198 72 31 0 33 -3 47 -52z m275 -937 c7 -15 24
-33 37 -40 18 -8 176 -11 530 -11 401 0 511 -3 537 -14 49 -20 95 -78 102
-128 3 -24 5 -253 3 -510 -3 -453 -4 -467 -24 -494 -37 -50 -72 -69 -124 -69
-52 0 -87 19 -124 69 -20 26 -21 44 -26 334 l-5 307 -28 57 c-66 134 -224 200
-365 154 -64 -22 -139 -88 -172 -152 l-25 -49 -5 -550 c-5 -605 -4 -588 -68
-633 -67 -48 -167 -29 -209 39 -20 32 -21 52 -26 329 -5 348 -8 362 -96 451
-96 95 -221 117 -339 59 -103 -52 -152 -126 -170 -257 -12 -88 -37 -125 -97
-149 -75 -28 -139 -3 -178 70 -19 36 -22 63 -27 216 -5 149 -8 182 -26 221
-31 67 -78 114 -146 149 -108 53 -233 37 -323 -42 -59 -52 -93 -120 -105 -210
-5 -42 -16 -82 -27 -97 -50 -67 -123 -87 -190 -53 -53 28 -73 60 -84 141 -13
93 -25 124 -68 179 -52 65 -126 104 -211 110 -98 7 -160 -17 -231 -87 -93 -94
-92 -87 -97 -576 -4 -454 -4 -454 -60 -493 -69 -50 -167 -30 -213 44 -24 38
-24 43 -29 344 -6 351 -8 360 -101 444 -92 83 -217 100 -327 46 -103 -52 -155
-130 -171 -259 -11 -86 -35 -123 -96 -146 -74 -29 -157 1 -188 68 -15 31 -17
87 -17 515 0 315 4 490 11 509 14 38 57 83 96 99 27 12 298 14 1648 14 l1616
0 24 25 c14 13 25 31 25 40 0 12 15 15 89 15 88 0 89 0 100 -29z m-2052 -2098
c3 -10 15 -28 26 -40 l20 -23 1494 0 1493 0 0 -135 0 -135 -2180 0 -2180 0 0
135 0 135 550 0 551 0 24 25 c14 13 25 31 25 40 0 12 15 15 85 15 73 0 87 -3
92 -17z"/>
</g>
</svg>
